<svg width="1920" height="1136" viewBox="0 0 1920 1136" fill="none" xmlns="http://www.w3.org/2000/svg">
<g opacity="0.15" clip-path="url(#clip0_10_609)" filter="url(#filter0_f_10_609)">
<path d="M0 61H319.651H345.886H637.3H657.317H846.939H859.663H1089.91H1101.81H1260.75H1281.4H1773.39H1785.51H1918.35C1919.22 62.3664 1919.7 63.5855 1919.83 65.1996C1921.01 80.7662 1919.99 97.2055 1920 112.842L1920.01 210.358L1920.03 596.718L1920.02 692.496C1920.02 701.801 1921.51 720.012 1919.72 728.356C1919.5 729.34 1919.22 730.278 1918.9 731.231C1920.92 736.593 1921.57 754.938 1919.04 760.253C1918.73 760.888 1918.69 760.937 1918.36 761.466C1919.47 763.269 1919.79 764.664 1919.91 766.759C1920.6 780.325 1920.03 794.197 1920.04 807.802L1920.03 887.39C1920.03 897.541 1921.42 936.308 1919.6 943.076C1919.34 944.062 1918.89 944.957 1918.36 945.822C1919.77 948.735 1920.73 951.181 1919.57 954.43C1919.23 955.383 1918.82 956.303 1918.39 957.219C1919.49 959.001 1919.8 960.366 1919.91 962.439C1920.61 976.327 1920.03 990.537 1920.03 1004.46V1086.22C1920.03 1099.24 1921.58 1136.32 1919.75 1146.62C1919.54 1147.83 1919 1148.96 1918.35 1150H1383.08H1370.84H1201.26H1189.89H644.259H624.165H497.704H477.882H0V513.133V501.292V458.564V446.073V392.187V378.215V61Z" fill="#585F6A"/>
<path d="M1274.24 605.969C1279.41 606.707 1312.22 624.874 1316.86 628.522C1315.77 630.234 1312.7 631.064 1310.86 631.84C1308.34 634.831 1304.12 636.729 1300.7 638.456C1299.64 633.096 1278.96 610.972 1274.24 605.969Z" fill="#F2F2F2"/>
<path d="M908.869 421.71C925.877 429.032 946.299 443.752 961.526 454.628C954.181 474.431 946.285 494.067 939.763 514.167C937.125 522.605 934.352 530.998 931.444 539.345C927.725 499.015 919.853 460.626 908.869 421.71Z" fill="#F2F2F2"/>
<path d="M1094.24 225.942C1104.42 224.756 1113.39 225.276 1122.18 231.214C1128.63 235.568 1133.64 242.245 1135 250.046C1135.08 250.463 1135.15 250.881 1135.19 251.302C1135.25 251.722 1135.3 252.144 1135.33 252.567C1135.36 252.99 1135.38 253.413 1135.4 253.836C1135.4 254.26 1135.4 254.684 1135.4 255.108C1135.38 255.532 1135.36 255.955 1135.33 256.378C1135.3 256.8 1135.26 257.222 1135.21 257.642C1135.16 258.063 1135.09 258.482 1135.02 258.899C1134.95 259.317 1134.86 259.732 1134.76 260.146C1134.67 260.558 1134.57 260.968 1134.45 261.376C1134.33 261.784 1134.21 262.188 1134.08 262.589C1133.94 262.991 1133.8 263.388 1133.64 263.783C1133.48 264.177 1133.32 264.566 1133.15 264.951C1132.97 265.337 1132.79 265.718 1132.59 266.094C1132.39 266.47 1132.19 266.841 1131.98 267.206C1131.77 267.572 1131.54 267.932 1131.31 268.286C1131.08 268.641 1130.84 268.989 1130.6 269.331C1125.78 276.036 1117.22 280.606 1109.25 281.957C1101.97 283.095 1095.5 282.912 1088.67 279.813C1081.4 276.511 1075.31 270.431 1072.55 262.817C1070.1 256.061 1070.8 248.711 1073.92 242.307C1078.19 233.545 1085.41 229.095 1094.24 225.942Z" fill="#72B1AE"/>
<path d="M737.763 692.793C745.841 692.714 753.815 694.106 760.949 698.094C768.146 702.115 773.803 708.594 776.067 716.648C776.194 717.108 776.309 717.571 776.412 718.037C776.516 718.503 776.607 718.971 776.688 719.441C776.768 719.912 776.837 720.384 776.894 720.857C776.951 721.332 776.997 721.807 777.031 722.282C777.064 722.759 777.086 723.236 777.096 723.713C777.107 724.19 777.105 724.667 777.092 725.144C777.078 725.621 777.053 726.098 777.017 726.575C776.98 727.05 776.931 727.525 776.871 727.999C776.811 728.472 776.739 728.943 776.655 729.413C776.572 729.883 776.477 730.351 776.37 730.816C776.264 731.281 776.146 731.743 776.017 732.203C775.887 732.662 775.747 733.117 775.596 733.569C775.444 734.021 775.281 734.47 775.107 734.913C774.933 735.358 774.748 735.797 774.552 736.232C774.357 736.667 774.151 737.096 773.934 737.521C773.718 737.945 773.491 738.364 773.254 738.777C767.46 749.012 758.054 752.952 747.361 755.899C737.524 756.48 728.378 755.05 720.091 749.314C713.084 744.462 707.791 736.996 706.41 728.451C706.337 727.977 706.276 727.502 706.226 727.024C706.175 726.548 706.137 726.071 706.111 725.592C706.084 725.113 706.069 724.635 706.065 724.155C706.063 723.675 706.071 723.196 706.092 722.717C706.112 722.238 706.144 721.76 706.188 721.283C706.232 720.806 706.288 720.33 706.356 719.855C706.422 719.38 706.501 718.908 706.592 718.437C706.682 717.966 706.784 717.498 706.898 717.032C707.011 716.567 707.136 716.105 707.272 715.645C707.408 715.186 707.555 714.73 707.714 714.278C707.873 713.826 708.042 713.378 708.223 712.934C708.403 712.491 708.594 712.053 708.797 711.618C708.999 711.184 709.211 710.755 709.434 710.332C709.657 709.909 709.89 709.491 710.133 709.079C710.377 708.667 710.631 708.262 710.894 707.864C711.158 707.465 711.431 707.072 711.714 706.687C718.095 697.942 727.462 694.368 737.763 692.793Z" fill="#6DAAFF"/>
<path d="M1529.74 1002.06C1543.19 1000.23 1556.55 1001.24 1568.01 1009.27C1576.04 1014.9 1581.76 1023.48 1583.3 1033.27C1583.4 1033.86 1583.47 1034.45 1583.54 1035.04C1583.59 1035.64 1583.64 1036.23 1583.67 1036.82C1583.71 1037.42 1583.73 1038.01 1583.73 1038.61C1583.73 1039.21 1583.72 1039.8 1583.69 1040.4C1583.67 1040.99 1583.62 1041.59 1583.57 1042.18C1583.52 1042.77 1583.45 1043.37 1583.37 1043.96C1583.28 1044.55 1583.18 1045.13 1583.07 1045.72C1582.96 1046.3 1582.83 1046.89 1582.68 1047.46C1582.54 1048.04 1582.39 1048.62 1582.22 1049.19C1582.05 1049.76 1581.87 1050.33 1581.67 1050.89C1581.47 1051.45 1581.26 1052.01 1581.04 1052.56C1580.81 1053.11 1580.58 1053.66 1580.33 1054.19C1580.08 1054.73 1579.81 1055.27 1579.54 1055.79C1579.26 1056.32 1578.96 1056.84 1578.66 1057.35C1578.36 1057.86 1578.04 1058.37 1577.71 1058.86C1577.39 1059.36 1577.05 1059.85 1576.7 1060.33C1570.38 1068.86 1560.18 1074.29 1549.83 1075.79C1541.21 1077.82 1531.65 1076.71 1523.49 1073.34C1513.83 1069.35 1505.9 1061.76 1501.96 1051.95C1501.74 1051.43 1501.54 1050.9 1501.35 1050.36C1501.16 1049.82 1500.99 1049.28 1500.83 1048.74C1500.67 1048.19 1500.52 1047.64 1500.37 1047.09C1500.24 1046.54 1500.12 1045.98 1500.02 1045.42C1499.91 1044.86 1499.82 1044.3 1499.74 1043.74C1499.66 1043.17 1499.6 1042.61 1499.55 1042.04C1499.5 1041.47 1499.46 1040.91 1499.44 1040.34C1499.41 1039.77 1499.41 1039.2 1499.41 1038.63C1499.42 1038.06 1499.44 1037.49 1499.48 1036.92C1499.51 1036.36 1499.56 1035.79 1499.63 1035.22C1499.69 1034.66 1499.77 1034.09 1499.86 1033.53C1499.95 1032.97 1500.05 1032.41 1500.17 1031.86C1500.29 1031.3 1500.43 1030.75 1500.58 1030.2C1500.72 1029.65 1500.88 1029.1 1501.06 1028.56C1501.24 1028.02 1501.43 1027.48 1501.63 1026.95C1501.83 1026.42 1502.05 1025.89 1502.27 1025.37C1507.61 1013.23 1517.99 1006.76 1529.74 1002.06Z" fill="#6DAAFF"/>
<path d="M1148 855.528C1162.14 853.781 1175.41 855.504 1187.27 864.056C1196.12 870.448 1202.17 879.845 1203.91 890.733C1205.56 901.091 1203.26 911.523 1196.99 919.952C1189.68 929.797 1178.3 935.378 1166.45 937.216C1155.33 938.146 1144.54 937.037 1134.48 931.843C1124.67 926.778 1116.81 918.34 1113.48 907.634C1113.3 907.028 1113.13 906.417 1112.97 905.802C1112.81 905.188 1112.67 904.57 1112.55 903.948C1112.43 903.326 1112.32 902.701 1112.22 902.074C1112.13 901.446 1112.05 900.817 1111.99 900.185C1111.92 899.553 1111.88 898.921 1111.85 898.288C1111.82 897.654 1111.81 897.02 1111.81 896.385C1111.81 895.751 1111.82 895.117 1111.86 894.483C1111.89 893.849 1111.93 893.217 1112 892.586C1112.06 891.955 1112.14 891.325 1112.24 890.698C1112.34 890.07 1112.45 889.446 1112.58 888.825C1112.7 888.203 1112.84 887.585 1113 886.972C1113.15 886.357 1113.33 885.747 1113.52 885.141C1113.71 884.536 1113.91 883.935 1114.13 883.34C1114.35 882.745 1114.58 882.156 1114.82 881.572C1115.07 880.989 1115.33 880.412 1115.6 879.842C1115.89 879.271 1116.18 878.708 1116.48 878.153C1123.33 865.438 1134.86 859.558 1148 855.528Z" fill="#6DAAFF"/>
<path d="M625.738 271.94C637.975 271.204 649.447 272.167 660.487 278.017C670.735 283.448 678.781 292.432 682.168 303.69C682.36 304.326 682.537 304.968 682.698 305.613C682.859 306.259 683.005 306.909 683.134 307.562C683.263 308.215 683.376 308.872 683.473 309.53C683.569 310.189 683.649 310.85 683.713 311.513C683.777 312.175 683.825 312.839 683.857 313.504C683.888 314.169 683.904 314.835 683.902 315.501C683.9 316.166 683.882 316.832 683.848 317.497C683.814 318.162 683.763 318.826 683.696 319.489C683.629 320.151 683.546 320.811 683.446 321.47C683.346 322.128 683.23 322.783 683.098 323.436C682.967 324.089 682.819 324.737 682.655 325.382C682.491 326.028 682.312 326.668 682.116 327.304C681.92 327.94 681.709 328.571 681.482 329.196C681.256 329.822 681.014 330.442 680.756 331.055C680.499 331.668 680.227 332.275 679.94 332.875C679.653 333.474 679.351 334.066 679.035 334.651C671.865 347.858 659.436 354.675 645.605 358.805C632.829 361.217 620.399 359.368 609.088 352.787C598.339 346.535 589.048 336.093 585.947 323.777C585.793 323.138 585.654 322.495 585.532 321.85C585.409 321.204 585.302 320.555 585.212 319.903C585.122 319.252 585.048 318.599 584.99 317.943C584.933 317.288 584.891 316.632 584.866 315.975C584.841 315.318 584.833 314.661 584.841 314.003C584.848 313.345 584.873 312.688 584.913 312.033C584.954 311.376 585.011 310.721 585.084 310.067C585.158 309.414 585.247 308.762 585.352 308.114C585.458 307.465 585.581 306.819 585.718 306.176C585.856 305.533 586.01 304.894 586.179 304.26C586.35 303.624 586.535 302.994 586.736 302.369C586.938 301.743 587.154 301.123 587.386 300.509C587.619 299.894 587.867 299.286 588.129 298.684C588.391 298.082 588.669 297.487 588.961 296.898C589.253 296.311 589.56 295.731 589.881 295.158C590.202 294.586 590.537 294.022 590.887 293.466C598.822 280.672 611.752 275.183 625.738 271.94Z" fill="#6DAAFF"/>
<path d="M887.375 785.436C889.6 785.001 891.379 784.718 893.638 785.009C894.604 789.272 890.323 798.458 888.863 802.6C875.972 839.183 859.925 873.686 841.574 907.795C831.785 896.261 822.953 883.547 813.795 871.478C797.908 850.059 779.263 821.819 767.8 797.987C807.861 795.769 847.719 791.586 887.375 785.436Z" fill="#F2F2F2"/>
<path d="M1558.06 805.433C1573.58 803.384 1588.38 805.699 1601.33 815.037C1601.95 815.475 1602.56 815.928 1603.15 816.396C1603.75 816.864 1604.33 817.348 1604.9 817.845C1605.47 818.343 1606.02 818.855 1606.57 819.38C1607.11 819.906 1607.64 820.445 1608.16 820.998C1608.68 821.551 1609.19 822.116 1609.68 822.694C1610.16 823.272 1610.64 823.861 1611.1 824.463C1611.56 825.065 1612 825.678 1612.43 826.302C1612.87 826.927 1613.28 827.562 1613.68 828.207C1614.08 828.852 1614.46 829.507 1614.83 830.171C1615.19 830.835 1615.54 831.509 1615.88 832.191C1616.21 832.873 1616.53 833.563 1616.83 834.261C1617.13 834.959 1617.41 835.664 1617.67 836.376C1617.93 837.088 1618.18 837.807 1618.41 838.531C1618.64 839.256 1618.84 839.986 1619.03 840.721C1619.23 841.456 1619.41 842.196 1619.56 842.94C1619.72 843.684 1619.85 844.431 1619.97 845.182C1621.86 857.138 1619.53 869.4 1612.27 879.165C1603.19 891.373 1589.78 897.097 1575.2 899.294C1562.93 901.394 1549.63 898.809 1538.79 892.713C1528.15 886.731 1520.09 877.446 1516.8 865.51C1516.61 864.787 1516.43 864.06 1516.27 863.328C1516.12 862.597 1515.98 861.861 1515.86 861.122C1515.73 860.384 1515.63 859.642 1515.54 858.899C1515.46 858.155 1515.39 857.41 1515.34 856.663C1515.3 855.916 1515.26 855.168 1515.25 854.419C1515.24 853.671 1515.25 852.922 1515.27 852.174C1515.29 851.426 1515.33 850.678 1515.4 849.933C1515.45 849.186 1515.53 848.442 1515.63 847.699C1515.73 846.957 1515.84 846.218 1515.98 845.481C1516.1 844.744 1516.25 844.011 1516.42 843.282C1516.59 842.552 1516.78 841.827 1516.98 841.108C1517.18 840.388 1517.4 839.673 1517.64 838.964C1517.88 838.254 1518.14 837.551 1518.4 836.855C1518.68 836.158 1518.97 835.469 1519.28 834.787C1519.58 834.105 1519.9 833.43 1520.24 832.764C1520.58 832.097 1520.93 831.44 1521.3 830.791C1529.45 816.223 1542.67 809.609 1558.06 805.433Z" fill="#6DAAFF"/>
<path d="M1202.99 1101.46C1249.7 1103.36 1295.01 1102.61 1341.4 1095.95C1349.29 1094.82 1359.76 1094.11 1367.04 1091.2C1370.76 1096.78 1373.37 1138.99 1372.09 1146.84C1371.89 1148.04 1371.43 1148.96 1370.84 1150H1201.26C1204.28 1145.47 1205.5 1109.92 1204.1 1103.97C1203.9 1103.09 1203.44 1102.23 1202.99 1101.46Z" fill="#F2F2F2"/>
<path d="M396.928 217.198C412.503 215.497 427.757 217.644 441.244 226.177C442.02 226.666 442.783 227.174 443.534 227.701C444.284 228.229 445.021 228.774 445.745 229.339C446.468 229.902 447.178 230.484 447.873 231.084C448.568 231.684 449.248 232.301 449.913 232.934C450.577 233.568 451.226 234.218 451.858 234.884C452.491 235.55 453.107 236.232 453.705 236.929C454.305 237.626 454.886 238.338 455.45 239.064C456.014 239.79 456.56 240.53 457.088 241.284C457.615 242.037 458.123 242.804 458.613 243.583C459.103 244.361 459.574 245.152 460.024 245.955C460.475 246.757 460.906 247.571 461.316 248.395C461.726 249.219 462.117 250.053 462.487 250.896C462.857 251.74 463.205 252.593 463.532 253.454C463.86 254.315 464.166 255.184 464.451 256.061C464.736 256.937 464.999 257.82 465.24 258.71C465.482 259.6 465.701 260.495 465.898 261.395C468.628 274.31 466.575 287.849 459.407 298.977C449.625 314.166 434.998 321.897 417.896 325.504C401.939 327.255 386.53 325.789 372.445 317.253C360.13 309.791 350.556 297.564 347.294 283.34C344.232 269.984 347.356 255.62 354.645 244.176C364.439 228.799 379.793 221.103 396.928 217.198Z" fill="#72B1AE"/>
<path d="M1101.81 61H1260.75C1260.71 61.2353 1260.72 61.484 1260.64 61.7058C1259.48 64.6913 1226 89.6625 1220.84 93.9722C1209.98 103.025 1199.38 112.381 1189.06 122.041C1169.33 140.314 1151.19 159.639 1133.15 179.571C1125.66 187.845 1110.96 208.178 1103.36 213.277C1103.67 212.579 1103.93 211.88 1104.12 211.138C1105.35 206.356 1101.36 179.431 1100.77 172.501C1098.59 147.244 1098.82 122.854 1100.52 97.5838C1101.03 90.0112 1105.11 66.5717 1101.81 61Z" fill="#F2F2F2"/>
<path d="M934.713 586.937C941.756 590.419 948.929 599.139 954.735 604.649C987.147 635.399 1017.2 667.486 1044.2 703.216C1051.52 712.903 1059.1 722.521 1065.4 732.93C1050.22 737.611 1034.95 741.967 1019.59 745.999C983.961 754.704 948.444 763.516 912.142 768.927C930.202 709.371 935.269 648.883 934.713 586.937Z" fill="#F2F2F2"/>
<path d="M1757.49 917.757C1782.69 907.02 1858.17 827.549 1878.33 803.687C1889.33 790.666 1898.68 775.437 1910.41 763.252C1912.73 760.842 1915.3 761.492 1918.36 761.466C1919.47 763.269 1919.79 764.664 1919.91 766.759C1920.6 780.325 1920.03 794.197 1920.04 807.802L1920.03 887.39C1920.03 897.541 1921.42 936.308 1919.6 943.076C1919.34 944.062 1918.89 944.957 1918.36 945.822C1905.42 945.568 1892.16 943.54 1879.34 941.814C1838.04 936.251 1798.11 926.777 1757.49 917.757Z" fill="#F2F2F2"/>
<path d="M1072.53 283.571C1083.72 288.829 1090.36 293.89 1103.34 294.888C1108.75 304.083 1116.1 340.219 1120.87 353.977C1124.98 366.182 1129.38 378.283 1134.06 390.282C1138.73 402.281 1143.68 414.164 1148.91 425.931C1154.13 437.698 1159.62 449.336 1165.38 460.846C1171.14 472.356 1177.16 483.724 1183.44 494.952C1190.93 508.121 1199.01 520.786 1207.25 533.483C1211.61 540.224 1216.96 547.142 1220.47 554.324C1221.18 555.801 1221.34 557.3 1221.25 558.925C1217.5 552.445 1196.66 538.217 1189.38 534.148C1188.9 533.263 1129.92 484.158 1123.96 478.776C1085.55 444.063 1051.08 405.587 1017.18 366.507C1021.85 357.643 1027.77 349.278 1033.22 340.88C1045.87 321.408 1059.07 302.475 1072.53 283.571Z" fill="#F2F2F2"/>
<path d="M1012.48 378.243C1060.61 436.698 1115.88 492.298 1175.82 538.471C1196.72 554.568 1219.39 567.898 1240.35 583.689C1246.29 588.162 1288.37 638.633 1289.04 643.297C1286.52 647.246 1247.94 664.434 1241.46 666.472C1236.7 671.19 1218.37 677.15 1211.42 679.159C1211.41 678.85 1211.41 678.293 1211.33 677.961C1210 673.172 1192.95 653.856 1188.99 648.964C1181.38 639.453 1173.6 630.083 1165.65 620.853C1157.7 611.624 1149.59 602.541 1141.32 593.605C1133.05 584.669 1124.62 575.885 1116.04 567.254C1107.46 558.623 1098.73 550.15 1089.84 541.835C1080.95 533.52 1071.92 525.369 1062.75 517.381C1053.58 509.393 1044.26 501.574 1034.81 493.923C1025.36 486.272 1015.77 478.795 1006.05 471.491C996.33 464.187 986.484 457.062 976.511 450.114C985.796 425.553 999.072 400.774 1012.48 378.243Z" fill="#F2F2F2"/>
<path d="M695.549 325.94C754.727 341.893 842.19 379.893 893.872 413.112C909.311 455.084 918.509 514.991 921.674 559.805L904.279 547.015C843.49 499.803 775.038 459.342 702.812 432.749C698.344 423.887 694.672 414.499 690.385 405.52C683.343 390.768 675.68 376.429 667.903 362.063C681.829 352.431 690.052 342.114 695.549 325.94Z" fill="#F2F2F2"/>
<path d="M971.376 461.091C989.914 472.274 1007.6 487.056 1024.64 500.513C1082.72 546.388 1134.55 600.98 1181.02 658.55C1186.09 664.822 1198.72 677.029 1199.67 684.801C1189.26 691.967 1154.19 703.843 1141.1 707.471C1133.31 713.399 1089.72 725.639 1077.15 729.588C1051.39 688.964 1018.91 650.463 984.544 617.009C968.356 601.251 951.138 586.779 934.807 571.234C936.592 561.523 940.203 551.76 943.086 542.286C951.471 514.732 961.002 487.944 971.376 461.091Z" fill="#F2F2F2"/>
<path d="M737.396 799.705L754.343 798.479C778.813 840.319 803.608 880.414 835.167 917.306C786.643 1006.96 706.934 1091.66 624.165 1150H497.704C597.124 1077.98 681.341 975.325 721.369 857.757C727.712 839.129 734.231 819.167 737.396 799.705Z" fill="#F2F2F2"/>
<path d="M657.317 61H846.94C869.393 152.422 912.824 239.933 966.507 316.713C978.664 334.1 990.885 351.272 1005.06 367.073C990.364 391.657 978.472 417.756 966.853 443.92C946.04 429.466 924.097 417.34 903.012 403.429C889.21 364.84 874.842 327.776 855.928 291.347C810.881 204.587 737.388 116.88 657.317 61Z" fill="#F2F2F2"/>
<path d="M478.179 284.036C510.392 286.001 544.184 289.441 575.614 296.828C571.331 311.794 571.476 325.196 579.058 339.217C587.01 353.924 601.139 364.132 616.972 368.639C630.327 372.44 643.869 371.565 657.06 367.615C667.844 386.264 677.967 405.47 685.887 425.548C649.858 410.079 612.881 398.618 574.877 389.204C570.607 388.157 566.329 387.142 562.044 386.159C557.76 385.176 553.468 384.226 549.169 383.309C544.87 382.391 540.565 381.505 536.253 380.652C531.94 379.8 527.622 378.98 523.298 378.193C518.974 377.405 514.644 376.65 510.309 375.927C505.973 375.206 501.632 374.516 497.286 373.859C492.941 373.202 488.59 372.579 484.236 371.988C479.881 371.397 475.522 370.839 471.159 370.314C466.795 369.789 462.428 369.297 458.057 368.837C453.687 368.378 449.313 367.952 444.936 367.559C440.559 367.166 436.18 366.806 431.797 366.479C427.415 366.152 423.031 365.858 418.644 365.598C414.258 365.337 409.87 365.109 405.48 364.914C401.09 364.72 396.698 364.558 392.306 364.43C387.914 364.302 383.52 364.207 379.126 364.145C374.733 364.083 370.339 364.055 365.945 364.059C361.55 364.064 357.156 364.102 352.762 364.173C348.369 364.244 343.976 364.347 339.584 364.484C335.192 364.622 330.801 364.792 326.412 364.996C322.022 365.199 317.634 365.436 313.248 365.705C308.862 365.975 304.478 366.278 300.096 366.613C295.714 366.949 291.336 367.318 286.96 367.72C282.584 368.122 278.211 368.558 273.842 369.026C269.472 369.494 265.106 369.995 260.743 370.529C256.382 371.063 252.024 371.63 247.669 372.23C243.315 372.83 238.966 373.463 234.622 374.128C230.278 374.794 225.939 375.492 221.605 376.223C217.271 376.954 212.942 377.718 208.62 378.514C204.297 379.311 199.981 380.14 195.67 381.001C191.36 381.863 187.056 382.757 182.759 383.683C178.462 384.61 174.172 385.569 169.889 386.56C165.606 387.552 161.331 388.576 157.063 389.631C121.674 398.21 85.9321 408.732 52.1469 422.464C34.4753 429.647 17.2628 437.956 0 446.073V392.187C86.8807 341.247 179.52 309.56 278.428 292.422C297.231 289.165 316.232 287.642 335.087 284.824C341.57 304.835 353.398 320.144 372.161 329.682C390.497 339.003 413.042 339.799 432.4 333.162C449.656 327.246 465.479 314.735 473.412 297.978C475.531 293.5 476.9 288.808 478.179 284.036Z" fill="#F2F2F2"/>
<path d="M859.663 61H1089.91C1092.12 68.2768 1087.36 105.451 1087.06 115.697C1086.5 134.487 1087.27 153.234 1088.48 171.985C1089.07 181.001 1093.7 208.958 1092.35 214.884C1088.73 216.114 1085.15 217.375 1081.8 219.266C1071.86 224.9 1063.67 234.06 1060.63 245.304C1057.78 255.853 1060.22 264.861 1065.47 274.096C1045.8 300.554 1026.35 327.533 1010.65 356.625C998.585 342.455 988.05 326.933 977.436 311.654C925.044 236.236 881.152 150.917 859.663 61Z" fill="#F2F2F2"/>
<path d="M708.718 447.15C725.697 453.382 742.225 461.377 758.45 469.363C817.725 498.542 870.035 534.434 921.555 575.701C925.864 642.821 916.14 706.927 898.701 771.446C889.926 773.182 880.934 774.25 872.087 775.592C835.55 781.132 797.92 785.584 760.961 786.033C757.072 779.277 753.756 772.453 750.613 765.315C759.366 763.375 767.09 760.983 774.245 755.215C782.207 748.796 787.687 739.642 788.789 729.354C789.954 718.459 786.038 707.36 779.16 698.997C769.663 687.45 757.302 683.251 743.004 681.883C748.153 599.127 736.857 525.016 708.718 447.15Z" fill="#F2F2F2"/>
<path d="M1326.39 636.22C1328.68 635.557 1330.35 635.318 1332.65 636.119C1345.55 640.62 1362.18 651.422 1374.94 657.809C1397.65 668.973 1420.8 679.105 1444.4 688.205C1451.42 690.961 1458.46 693.644 1465.53 696.254C1472.6 698.864 1479.7 701.4 1486.83 703.864C1493.95 706.328 1501.09 708.717 1508.27 711.033C1515.44 713.349 1522.63 715.591 1529.85 717.757C1537.07 719.925 1544.3 722.018 1551.56 724.036C1558.83 726.054 1566.1 727.996 1573.4 729.864C1580.7 731.731 1588.02 733.523 1595.35 735.24C1602.69 736.956 1610.04 738.597 1617.41 740.161C1624.78 741.725 1632.17 743.214 1639.56 744.626C1646.96 746.038 1654.38 747.374 1661.8 748.633C1669.23 749.892 1676.67 751.074 1684.11 752.18C1691.56 753.285 1699.02 754.314 1706.5 755.265C1713.97 756.217 1721.45 757.091 1728.94 757.888C1736.43 758.685 1743.92 759.404 1751.42 760.045C1758.92 760.688 1766.44 761.252 1773.95 761.74C1781.46 762.227 1788.98 762.636 1796.51 762.968C1829.04 764.518 1862.33 765.46 1894.81 762.587C1894.74 763.044 1894.67 763.862 1894.5 764.344C1889.97 777.552 1815.11 858.551 1802.24 865.745C1802.17 865.932 1802.14 866.127 1802.07 866.305C1799.6 871.851 1750.58 912.111 1743.68 915.243C1737.77 912.412 1730.34 910.962 1724.05 909.054C1711.8 905.346 1699.59 901.52 1687.42 897.578C1666.89 890.948 1647.21 882.593 1626.98 875.169C1630.01 872.162 1631.18 865.925 1631.94 861.795C1634.49 847.776 1630.32 832.394 1622.33 820.817C1612.57 806.675 1597.31 797.555 1580.55 794.676C1561.85 791.465 1543.31 795.75 1528 807.028C1523.31 810.487 1519.32 814.836 1514.57 818.152C1514.41 818.273 1514.23 818.39 1514.05 818.509C1508.09 811.093 1481.91 796.77 1472.33 789.925C1454.93 777.222 1437.8 764.169 1420.92 750.767C1395.05 730.045 1370.7 708.825 1346.83 685.759C1337.05 676.319 1317.34 653.015 1307.7 646.749C1313.71 644.439 1321.54 640.497 1326.39 636.22Z" fill="#F2F2F2"/>
<path d="M1204.21 695.769C1205.93 695.311 1206.94 695.177 1208.68 695.57C1217.34 702.833 1224.3 716.427 1230.45 725.956C1239.85 740.53 1249.7 755.043 1258.52 769.97C1279.22 805.008 1296.94 842.143 1312.68 879.671C1335.47 933.972 1351.12 989.297 1362.1 1047.13C1363.61 1055.09 1368.51 1072.32 1365.5 1079.79C1359.71 1082.54 1349.77 1083.1 1343.38 1084.04C1298.04 1090.75 1253.46 1092.08 1207.72 1090.17C1204.27 1089.67 1204.04 1089.27 1203.63 1085.96C1202.41 1076.27 1202.52 1066.38 1201.49 1056.64C1199.25 1035.65 1188.71 958.915 1176.95 945.756C1188.28 943.607 1199.08 936.635 1206.13 927.505C1206.63 926.844 1207.11 926.171 1207.58 925.485C1208.05 924.8 1208.5 924.104 1208.94 923.398C1209.37 922.69 1209.79 921.973 1210.18 921.245C1210.58 920.517 1210.96 919.78 1211.33 919.034C1211.69 918.287 1212.03 917.532 1212.36 916.769C1212.69 916.005 1213 915.234 1213.29 914.455C1213.58 913.676 1213.85 912.891 1214.09 912.099C1214.35 911.307 1214.58 910.509 1214.79 909.705C1215.01 908.902 1215.2 908.094 1215.37 907.281C1215.55 906.467 1215.7 905.651 1215.83 904.83C1215.97 904.009 1216.08 903.186 1216.17 902.36C1216.27 901.534 1216.34 900.706 1216.39 899.876C1216.45 899.046 1216.49 898.216 1216.5 897.384C1216.51 896.552 1216.51 895.721 1216.48 894.89C1216.45 894.058 1216.4 893.228 1216.34 892.399C1216.27 891.571 1216.18 890.744 1216.08 889.919C1214.36 876.325 1206.58 864.37 1195.88 856.137C1178.75 842.966 1160.29 842.851 1140.01 845.541C1139.99 845.045 1139.99 844.288 1139.9 843.766C1137.56 830.348 1093.39 747.626 1083.07 739.365C1100.75 736.074 1193.82 703.442 1204.21 695.769Z" fill="#F2F2F2"/>
<path d="M843.93 927.799C851.074 935.636 858.549 943.184 865.914 950.811C869.035 948.022 872.598 946.285 876.289 944.384C889.477 940.937 902.873 940.425 914.994 947.754C922.593 952.35 928.173 959.54 930.254 968.279C932.371 977.175 930.484 984.144 927.605 992.5C925.415 995.764 923.196 998.846 920.626 1001.82C975.562 1045.59 1055.47 1077.2 1123.74 1090.86C1146.06 1095.32 1168.58 1097.21 1191.06 1100.46C1193.17 1105.21 1192.54 1143.54 1190.56 1148.6C1190.2 1149.5 1190.28 1149.3 1189.89 1150H644.259C728.389 1087.26 788.303 1016.7 843.93 927.799Z" fill="#F2F2F2"/>
<path d="M876.289 944.384C889.477 940.937 902.873 940.425 914.994 947.754C922.593 952.35 928.173 959.54 930.254 968.279C932.371 977.175 930.484 984.144 927.605 992.5C925.415 995.764 923.196 998.846 920.626 1001.82C919.784 1002.5 918.917 1003.15 918.025 1003.76C917.133 1004.38 916.219 1004.96 915.283 1005.5C914.347 1006.05 913.392 1006.55 912.418 1007.02C911.443 1007.49 910.452 1007.93 909.445 1008.32C908.438 1008.71 907.417 1009.07 906.383 1009.38C905.349 1009.7 904.304 1009.97 903.248 1010.21C902.193 1010.44 901.131 1010.64 900.061 1010.79C898.992 1010.94 897.918 1011.05 896.84 1011.12C885.834 1011.85 874.053 1008.73 865.671 1001.29C865.265 1000.94 864.869 1000.57 864.481 1000.19C864.094 999.819 863.716 999.433 863.347 999.038C862.978 998.644 862.619 998.24 862.27 997.827C861.921 997.414 861.582 996.994 861.253 996.565C860.925 996.135 860.607 995.698 860.3 995.252C859.993 994.807 859.697 994.355 859.412 993.895C859.127 993.435 858.853 992.968 858.59 992.495C858.329 992.021 858.078 991.542 857.839 991.056C857.6 990.57 857.373 990.079 857.159 989.581C856.944 989.084 856.742 988.582 856.551 988.075C856.361 987.567 856.183 987.056 856.017 986.539C855.852 986.023 855.7 985.504 855.561 984.98C855.421 984.456 855.293 983.93 855.179 983.4C855.065 982.87 854.964 982.337 854.876 981.802C854.787 981.267 854.712 980.73 854.65 980.192C854.588 979.653 854.54 979.113 854.505 978.572C853.883 967.578 858.906 958.788 865.914 950.811C869.035 948.022 872.598 946.285 876.289 944.384Z" fill="#72B1AE"/>
<path d="M345.886 61H637.3C640.913 63.5407 644.501 66.117 648.064 68.7289C651.627 71.3407 655.164 73.9877 658.676 76.6698C662.187 79.3519 665.671 82.0685 669.129 84.8197C672.588 87.571 676.02 90.3562 679.423 93.1755C682.827 95.9948 686.203 98.8476 689.551 101.734C692.899 104.62 696.219 107.539 699.511 110.492C702.802 113.444 706.064 116.428 709.297 119.445C712.53 122.462 715.734 125.511 718.907 128.591C722.081 131.672 725.224 134.783 728.337 137.926C731.45 141.069 734.532 144.242 737.583 147.446C740.633 150.65 743.653 153.884 746.64 157.148C749.628 160.412 752.584 163.705 755.507 167.028C758.431 170.351 761.322 173.702 764.18 177.082C767.038 180.461 769.863 183.869 772.654 187.305C775.446 190.741 778.204 194.205 780.928 197.695C783.652 201.186 786.342 204.703 788.997 208.247C791.652 211.791 794.273 215.361 796.859 218.957C799.444 222.553 801.994 226.175 804.509 229.822C807.024 233.468 809.504 237.139 811.948 240.835C814.391 244.531 816.798 248.251 819.169 251.994C821.54 255.737 823.874 259.504 826.171 263.295C828.468 267.085 830.728 270.897 832.951 274.731C835.174 278.566 837.359 282.423 839.507 286.301C841.654 290.179 843.764 294.078 845.836 297.998C847.907 301.918 849.94 305.858 851.934 309.818C853.929 313.779 855.885 317.759 857.802 321.758C859.719 325.757 861.597 329.774 863.435 333.81C865.274 337.847 867.073 341.902 868.833 345.973C870.591 350.046 872.311 354.135 873.991 358.241C875.671 362.347 877.31 366.47 878.909 370.609C880.508 374.747 882.066 378.901 883.585 383.071C885.103 387.24 886.581 391.425 888.017 395.624C822.156 359.655 767.981 337.264 697.044 313.579C696.338 308.981 695.232 304.052 693.659 299.673C693.328 298.755 692.975 297.846 692.599 296.946C692.223 296.046 691.825 295.156 691.406 294.276C690.986 293.395 690.545 292.526 690.083 291.668C689.62 290.81 689.136 289.964 688.632 289.131C688.127 288.297 687.602 287.476 687.057 286.669C686.513 285.861 685.948 285.068 685.364 284.29C684.779 283.51 684.176 282.747 683.555 281.998C682.933 281.249 682.293 280.516 681.635 279.8C680.976 279.083 680.301 278.383 679.608 277.701C678.915 277.019 678.206 276.354 677.481 275.706C676.755 275.06 676.014 274.432 675.258 273.822C674.501 273.211 673.731 272.621 672.945 272.05C672.159 271.479 671.359 270.928 670.546 270.397C669.733 269.866 668.908 269.356 668.07 268.867C667.232 268.377 666.382 267.909 665.52 267.462C664.659 267.016 663.787 266.591 662.905 266.188C642.978 257.16 622.728 259.902 603.108 267.582C594.245 257.288 585.964 246.561 576.849 236.48C530.668 185.401 478.063 138.979 419.749 102.412C395.699 87.332 370.797 74.4656 345.886 61Z" fill="#F2F2F2"/>
<path d="M908.278 781.76C936.004 776.952 963.572 771.354 990.982 764.965C1018.39 758.576 1045.6 751.408 1072.61 743.459C1081.39 755.151 1129.5 836.849 1128.97 849.403C1128.78 849.652 1128.59 849.905 1128.4 850.151C1126.26 852.847 1121.94 854.98 1119.2 857.209C1105.74 868.155 1098.29 882.442 1099.7 900.3C1100.76 913.887 1107.47 925.884 1117.69 934.653C1130.35 945.509 1147.28 950.309 1163.73 948.914C1164.73 948.829 1165.7 948.691 1166.71 948.507C1176.65 960.131 1193.25 1067.37 1191.34 1084.84C1191.17 1086.3 1190.57 1087.63 1189.93 1088.92C1168.89 1086.07 1147.54 1083.72 1126.71 1079.57C1122.25 1078.67 1117.79 1077.72 1113.35 1076.7C1108.9 1075.69 1104.47 1074.61 1100.05 1073.48C1095.64 1072.34 1091.24 1071.15 1086.86 1069.9C1082.48 1068.65 1078.11 1067.34 1073.77 1065.97C1069.41 1064.6 1065.08 1063.17 1060.77 1061.68C1056.46 1060.2 1052.17 1058.66 1047.9 1057.06C1043.63 1055.45 1039.38 1053.8 1035.15 1052.08C1030.93 1050.37 1026.72 1048.6 1022.54 1046.77C1018.36 1044.94 1014.21 1043.06 1010.08 1041.12C1005.95 1039.18 1001.84 1037.18 997.766 1035.13C993.688 1033.08 989.639 1030.98 985.617 1028.82C981.595 1026.66 977.602 1024.45 973.639 1022.19C969.675 1019.92 965.743 1017.6 961.841 1015.23C957.938 1012.86 954.068 1010.44 950.23 1007.96C946.392 1005.49 942.587 1002.96 938.816 1000.38C935.044 997.805 931.307 995.178 927.605 992.5C930.484 984.144 932.371 977.175 930.254 968.279C928.174 959.54 922.593 952.35 914.994 947.754C902.873 940.425 889.477 940.938 876.289 944.384C867.188 935.896 859.499 925.681 850.092 917.63C872.947 873.817 894.862 829.636 908.278 781.76Z" fill="#F2F2F2"/>
<path d="M1747.37 927.465C1803.96 941.161 1860.18 953.091 1918.39 957.219C1919.49 959.001 1919.8 960.366 1919.91 962.439C1920.61 976.327 1920.03 990.537 1920.03 1004.46V1086.22C1920.03 1099.24 1921.58 1136.32 1919.75 1146.62C1919.54 1147.83 1919 1148.96 1918.35 1150H1383.08C1383.86 1148.75 1384.34 1147.58 1384.51 1146.1C1385.4 1138.31 1382.95 1094.39 1378.87 1089.04C1399.55 1086.18 1471.74 1069.06 1489.27 1057.9C1492.49 1060.14 1494.84 1064.31 1497.33 1067.38C1507.05 1079.39 1520.01 1086.35 1535.41 1087.75C1550.52 1089.11 1566.51 1084.85 1578.19 1074.9C1587.71 1066.77 1594.97 1054.21 1595.76 1041.48C1596.13 1035.73 1595.49 1028.37 1591.56 1023.86C1614.25 1017.27 1733.1 944.695 1747.37 927.465Z" fill="#F2F2F2"/>
<path d="M1295.67 653.235L1298.87 653.288C1310.96 665.568 1322.31 678.57 1334.47 690.778C1347.39 703.657 1360.7 716.11 1374.4 728.137C1388.1 740.163 1402.17 751.738 1416.6 762.863C1435.82 777.848 1455.5 792.201 1475.63 805.922C1484.11 811.752 1502.1 821.357 1508.34 827.887C1508.8 830.387 1507.57 833.233 1506.94 835.652C1502.73 851.608 1501.7 863.872 1509.74 879.006C1517.41 893.436 1530.12 902.883 1545.51 907.638C1564.44 913.497 1586.42 911.117 1603.84 901.602C1609.39 898.571 1618.96 891.398 1620.87 884.954C1635.69 888.594 1657.12 899.437 1673.11 905.096C1692.79 912.06 1713.43 916.557 1732.93 923.864C1732.81 924.094 1732.72 924.327 1732.6 924.552C1730.83 927.948 1722.88 932.367 1719.61 934.719C1704.71 945.448 1689.5 955.714 1673.98 965.519C1658.46 975.323 1642.67 984.648 1626.59 993.493C1617.03 998.871 1606.23 1005.96 1595.73 1009.14C1593.57 1011.61 1590.02 1012.74 1587.06 1013.85C1587.02 1013.39 1587.03 1013.17 1586.81 1012.72C1581.73 1002.36 1567.37 995.302 1556.87 992.4C1555.92 992.143 1554.98 991.909 1554.03 991.699C1553.07 991.489 1552.11 991.302 1551.15 991.14C1550.19 990.978 1549.23 990.839 1548.26 990.725C1547.29 990.611 1546.32 990.521 1545.35 990.454C1544.37 990.388 1543.4 990.347 1542.42 990.33C1541.45 990.312 1540.47 990.319 1539.49 990.35C1538.52 990.381 1537.55 990.436 1536.57 990.516C1535.6 990.595 1534.63 990.699 1533.67 990.827C1532.7 990.955 1531.73 991.107 1530.78 991.282C1529.81 991.458 1528.86 991.658 1527.91 991.881C1526.96 992.105 1526.02 992.352 1525.08 992.622C1524.15 992.893 1523.21 993.186 1522.29 993.503C1521.36 993.82 1520.45 994.16 1519.54 994.522C1518.64 994.884 1517.74 995.269 1516.85 995.676C1515.97 996.083 1515.09 996.512 1514.22 996.962C1513.35 997.413 1512.5 997.886 1511.65 998.379C1497.83 1006.49 1490.32 1018.76 1488.28 1034.55C1487.75 1038.73 1488.13 1042.94 1487.01 1047.04C1486.96 1047.24 1486.89 1047.44 1486.84 1047.63C1478.62 1055.13 1394.42 1074.79 1377.38 1077.71C1379.06 1073.73 1377.68 1067.61 1377.15 1063.36C1362.87 950.543 1312.16 832.135 1251.71 736.693C1243.28 723.375 1229.73 698.755 1218.04 689.635C1227.59 687.412 1288.68 659.352 1295.67 653.235Z" fill="#F2F2F2"/>
<path d="M0 458.564C31.8078 443.888 63.4921 430.239 96.7368 419.144C102.584 417.21 108.452 415.339 114.339 413.531C120.226 411.723 126.132 409.978 132.056 408.297C137.98 406.616 143.922 405 149.88 403.447C155.839 401.894 161.813 400.406 167.803 398.981C173.793 397.557 179.797 396.197 185.815 394.902C191.834 393.607 197.865 392.377 203.91 391.212C209.955 390.046 216.012 388.946 222.08 387.912C228.148 386.877 234.226 385.907 240.314 385.003C246.403 384.099 252.5 383.261 258.606 382.488C264.713 381.715 270.827 381.008 276.948 380.366C283.069 379.725 289.196 379.15 295.33 378.64C301.463 378.131 307.601 377.688 313.744 377.311C319.887 376.934 326.034 376.623 332.183 376.378C338.332 376.133 344.483 375.954 350.636 375.841C356.789 375.729 362.943 375.683 369.098 375.703C375.252 375.723 381.405 375.809 387.557 375.961C393.71 376.114 399.86 376.333 406.007 376.618C412.155 376.902 418.299 377.252 424.439 377.669C430.58 378.087 436.715 378.57 442.845 379.119C448.975 379.668 455.098 380.283 461.216 380.964C467.333 381.645 473.442 382.391 479.543 383.204C485.644 384.016 491.736 384.894 497.819 385.838C503.902 386.781 509.974 387.79 516.035 388.865C522.096 389.939 528.145 391.078 534.183 392.281C540.22 393.486 546.244 394.755 552.254 396.09C558.264 397.424 564.259 398.823 570.24 400.285C576.221 401.749 582.185 403.276 588.134 404.868C594.082 406.459 600.013 408.114 605.927 409.833C611.84 411.552 617.734 413.335 623.61 415.181C629.485 417.028 635.34 418.936 641.176 420.908C647.011 422.881 652.825 424.915 658.617 427.013C664.409 429.11 670.178 431.269 675.924 433.49C681.459 435.585 686.953 437.78 692.409 440.075C694.365 444.832 696.253 449.617 698.072 454.43C699.891 459.242 701.64 464.08 703.319 468.944C704.998 473.808 706.606 478.695 708.145 483.606C709.683 488.517 711.151 493.449 712.547 498.404C713.942 503.357 715.266 508.331 716.519 513.323C717.771 518.316 718.952 523.326 720.06 528.353C721.168 533.381 722.203 538.423 723.166 543.481C724.129 548.539 725.018 553.61 725.835 558.694C726.651 563.778 727.393 568.872 728.063 573.978C728.732 579.084 729.328 584.198 729.85 589.321C730.372 594.444 730.82 599.574 731.194 604.71C731.568 609.846 731.868 614.987 732.094 620.132C732.32 625.277 732.471 630.424 732.549 635.574C732.625 640.723 732.628 645.873 732.557 651.022C732.486 656.172 732.341 661.319 732.121 666.465C731.901 671.61 731.607 676.751 731.239 681.887C725.814 683.419 720.743 685.071 715.581 687.389C713.421 684.661 711.237 681.953 709.027 679.265C706.818 676.577 704.584 673.91 702.328 671.262C700.07 668.616 697.789 665.99 695.484 663.385C693.179 660.78 690.851 658.197 688.499 655.634C686.147 653.072 683.773 650.532 681.375 648.014C678.978 645.495 676.558 642.999 674.115 640.525C671.673 638.051 669.208 635.6 666.721 633.172C664.234 630.743 661.725 628.337 659.194 625.955C656.664 623.572 654.112 621.213 651.539 618.877C648.966 616.542 646.372 614.23 643.757 611.943C641.142 609.655 638.506 607.391 635.85 605.152C633.194 602.913 630.518 600.698 627.822 598.508C625.126 596.318 622.411 594.152 619.676 592.012C616.941 589.872 614.186 587.757 611.412 585.667C608.639 583.578 605.847 581.514 603.036 579.476C600.226 577.437 597.397 575.425 594.55 573.439C591.702 571.453 588.838 569.493 585.956 567.559C583.073 565.626 580.173 563.719 577.255 561.839C574.339 559.959 571.405 558.105 568.454 556.279C565.504 554.453 562.537 552.654 559.553 550.882C556.571 549.11 553.572 547.366 550.557 545.65C547.542 543.933 544.513 542.245 541.467 540.584C538.422 538.923 535.362 537.29 532.287 535.686C529.212 534.082 526.124 532.506 523.021 530.958C519.917 529.41 516.8 527.891 513.67 526.401C510.539 524.91 507.394 523.448 504.237 522.016C501.08 520.583 497.91 519.18 494.728 517.806C491.546 516.431 488.351 515.086 485.144 513.771C481.937 512.455 478.718 511.169 475.488 509.913C472.258 508.656 469.017 507.43 465.765 506.233C462.513 505.036 459.25 503.87 455.976 502.733C452.703 501.596 449.419 500.489 446.126 499.413C417.241 489.879 387.745 483.653 358.267 476.413C357.899 480.508 357.54 484.553 356.754 488.592C353.604 496.71 350.37 503.23 343.796 509.217C343.232 509.725 342.656 510.22 342.067 510.701C341.479 511.181 340.88 511.646 340.27 512.098C339.66 512.549 339.039 512.985 338.408 513.406C337.777 513.827 337.136 514.233 336.485 514.623C335.835 515.013 335.176 515.387 334.507 515.745C333.839 516.103 333.163 516.445 332.479 516.77C331.794 517.095 331.102 517.404 330.402 517.695C329.703 517.987 328.997 518.261 328.284 518.518C327.572 518.776 326.854 519.016 326.13 519.238C325.406 519.461 324.678 519.666 323.944 519.853C323.21 520.039 322.472 520.208 321.731 520.36C320.989 520.511 320.244 520.644 319.495 520.759C318.748 520.875 317.997 520.972 317.244 521.05C316.492 521.129 315.738 521.189 314.982 521.231C314.226 521.273 313.47 521.297 312.713 521.302C311.956 521.307 311.2 521.294 310.444 521.263C291.236 520.285 275.613 507.752 269.892 489.438C268.828 486.033 268.895 480.904 266.626 478.334C178.004 471.023 83.7555 482.354 0 513.133V501.292V458.564Z" fill="#F2F2F2"/>
<path d="M0 501.292C72.5985 471.034 191.895 458.358 269.527 467.328C269.003 470.349 268.775 476.398 266.626 478.334C178.004 471.023 83.7555 482.354 0 513.133V501.292Z" fill="#585F6A"/>
<path d="M269.527 467.328C275.789 453.923 283.177 444.029 297.626 438.886C298.359 438.633 299.099 438.398 299.844 438.182C300.59 437.965 301.34 437.767 302.094 437.589C302.85 437.409 303.608 437.249 304.371 437.107C305.134 436.966 305.9 436.844 306.669 436.74C307.437 436.637 308.208 436.552 308.981 436.487C309.754 436.422 310.528 436.376 311.303 436.349C312.078 436.322 312.853 436.314 313.629 436.326C314.404 436.338 315.179 436.369 315.953 436.419C316.727 436.469 317.499 436.538 318.27 436.626C319.041 436.715 319.809 436.823 320.574 436.95C321.339 437.076 322.101 437.221 322.859 437.386C323.617 437.55 324.371 437.733 325.121 437.935C325.87 438.137 326.613 438.358 327.352 438.597C328.091 438.835 328.823 439.092 329.549 439.367C330.275 439.643 330.994 439.936 331.706 440.246C332.417 440.557 333.121 440.885 333.816 441.231C344.944 446.662 352.685 456.34 356.531 468.109C357.424 470.846 357.927 473.561 358.267 476.413C357.899 480.507 357.54 484.553 356.754 488.592C353.604 496.71 350.371 503.23 343.796 509.217C343.232 509.725 342.656 510.22 342.067 510.701C341.479 511.181 340.88 511.646 340.271 512.098C339.66 512.549 339.04 512.985 338.409 513.406C337.777 513.827 337.136 514.233 336.485 514.623C335.836 515.013 335.176 515.387 334.507 515.745C333.839 516.103 333.163 516.444 332.479 516.77C331.794 517.095 331.102 517.404 330.403 517.695C329.703 517.986 328.997 518.261 328.284 518.518C327.572 518.776 326.854 519.016 326.13 519.238C325.406 519.461 324.678 519.666 323.944 519.853C323.21 520.039 322.472 520.208 321.731 520.36C320.989 520.511 320.244 520.644 319.496 520.759C318.748 520.875 317.998 520.972 317.244 521.05C316.492 521.129 315.738 521.189 314.983 521.231C314.226 521.273 313.47 521.297 312.713 521.302C311.957 521.307 311.2 521.294 310.444 521.263C291.236 520.285 275.613 507.752 269.892 489.437C268.829 486.033 268.895 480.904 266.626 478.334C268.775 476.398 269.003 470.349 269.527 467.328Z" fill="#6DAAFF"/>
<path d="M0 61H319.651C409.048 103.289 489.786 159.348 557.151 232.432C569.544 245.876 582.433 259.593 593.25 274.367C588.649 277.802 584.591 281.202 580.629 285.401C546.731 280.162 513.41 274.975 479.141 272.723C477.309 252.644 471.087 235.547 455.191 222.274C439.654 209.301 418.376 204.04 398.493 206.146C379.772 208.13 361.522 216.981 349.563 231.837C339.625 244.185 335.208 257.546 334.341 273.239C316.49 275.582 298.558 277.421 280.784 280.311C271.762 281.712 262.765 283.261 253.793 284.959C244.821 286.655 235.879 288.499 226.967 290.491C218.055 292.482 209.177 294.62 200.334 296.905C191.492 299.188 182.688 301.617 173.924 304.191C165.159 306.764 156.439 309.482 147.763 312.343C139.086 315.204 130.459 318.207 121.88 321.352C113.3 324.497 104.774 327.782 96.3022 331.207C87.8296 334.633 79.4146 338.197 71.0574 341.9C46.6663 352.906 23.9826 366.537 0 378.215V61Z" fill="#F2F2F2"/>
<path d="M98.4514 135.041C118.709 133.176 138.426 137.852 154.858 150.27C168.826 160.825 179.064 176.295 181.485 193.92C183.761 210.493 178.657 227.236 168.665 240.446C155.949 257.256 137.467 265.944 117.059 268.63C98.1443 270.998 77.4076 265.9 61.8063 254.942C47.8071 245.108 37.6859 230.917 34.8316 213.759C31.924 196.282 36.0694 179.191 46.2333 164.822C59.0247 146.74 77.4009 138.53 98.4514 135.041Z" fill="#6DAAFF"/>
<path d="M343.711 630.459C344.473 630.369 345.236 630.293 346.001 630.23C408.028 625.034 472.168 649.234 518.743 689.891C557.687 723.887 585.329 781.029 589.035 832.658C593.427 893.835 575.075 951.97 535.004 998.435C497.622 1041.78 440.813 1072.05 383.664 1076.13L383.182 1076.19C325.973 1082.64 263.766 1064.3 218.871 1027.97C217.447 1026.83 216.038 1025.66 214.642 1024.49C213.247 1023.31 211.866 1022.11 210.499 1020.9C209.133 1019.69 207.781 1018.46 206.444 1017.21C205.108 1015.96 203.787 1014.7 202.482 1013.42C201.176 1012.14 199.886 1010.85 198.612 1009.54C197.339 1008.22 196.081 1006.9 194.839 1005.55C193.597 1004.21 192.372 1002.85 191.163 1001.48C189.955 1000.11 188.764 998.721 187.589 997.319C186.415 995.917 185.257 994.5 184.117 993.068C182.977 991.637 181.855 990.192 180.75 988.733C179.645 987.274 178.559 985.802 177.49 984.316C176.421 982.83 175.37 981.331 174.338 979.818C173.306 978.307 172.292 976.782 171.298 975.244C170.303 973.707 169.326 972.158 168.369 970.597C167.412 969.036 166.474 967.462 165.555 965.877C164.636 964.293 163.737 962.697 162.857 961.09C161.977 959.483 161.117 957.865 160.277 956.237C159.436 954.608 158.616 952.97 157.816 951.321C157.015 949.673 156.235 948.015 155.475 946.346C154.715 944.678 153.976 943.001 153.256 941.314C152.537 939.628 151.839 937.933 151.162 936.23C150.484 934.526 149.827 932.814 149.191 931.094C148.556 929.373 147.941 927.646 147.347 925.911C146.754 924.175 146.181 922.433 145.63 920.684C145.079 918.934 144.55 917.178 144.041 915.415C143.533 913.653 143.046 911.884 142.581 910.109C142.115 908.334 141.672 906.554 141.251 904.769C140.829 902.983 140.429 901.192 140.051 899.396C139.674 897.601 139.318 895.801 138.984 893.996C138.65 892.191 138.338 890.383 138.048 888.571C137.757 886.759 137.49 884.943 137.244 883.125C136.999 881.306 136.775 879.484 136.574 877.66C136.371 875.87 136.189 874.078 136.03 872.284C135.87 870.49 135.733 868.694 135.617 866.896C135.502 865.099 135.408 863.3 135.337 861.5C135.265 859.7 135.216 857.9 135.189 856.099C135.162 854.297 135.156 852.496 135.173 850.695C135.189 848.894 135.228 847.093 135.289 845.293C135.35 843.493 135.433 841.693 135.538 839.895C135.643 838.097 135.77 836.3 135.919 834.505C136.068 832.71 136.239 830.917 136.433 829.126C136.626 827.335 136.84 825.547 137.077 823.762C137.314 821.976 137.572 820.194 137.853 818.415C138.133 816.636 138.435 814.861 138.759 813.09C139.083 811.318 139.429 809.551 139.796 807.788C140.163 806.025 140.552 804.267 140.963 802.513C141.373 800.76 141.804 799.012 142.257 797.27C142.711 795.528 143.186 793.791 143.681 792.06C144.176 790.33 144.693 788.606 145.231 786.888C145.769 785.17 146.328 783.46 146.908 781.756C147.488 780.052 148.089 778.355 148.71 776.667C149.331 774.978 149.973 773.297 150.636 771.625C151.299 769.951 151.982 768.287 152.685 766.632C153.389 764.975 154.112 763.328 154.855 761.691C155.599 760.053 156.363 758.425 157.147 756.806C157.93 755.188 158.733 753.579 159.556 751.98C160.38 750.381 161.222 748.792 162.084 747.215C162.946 745.637 163.827 744.07 164.728 742.514C165.628 740.959 166.547 739.414 167.485 737.881C168.423 736.348 169.38 734.827 170.356 733.318C171.331 731.809 172.325 730.312 173.337 728.828C174.35 727.344 175.38 725.872 176.428 724.414C177.476 722.955 178.542 721.509 179.625 720.077C180.709 718.645 181.81 717.226 182.928 715.822C223.573 665.096 279.989 637.355 343.711 630.459Z" fill="#F2F2F2"/>
<path d="M508.12 1005.37L508.711 1006.5C506.727 1008.37 504.709 1010.2 502.657 1011.99C500.606 1013.77 498.522 1015.53 496.405 1017.24C494.288 1018.95 492.14 1020.62 489.962 1022.25C487.783 1023.88 485.575 1025.47 483.338 1027.01C481.1 1028.56 478.835 1030.07 476.541 1031.53C474.248 1032.99 471.929 1034.41 469.583 1035.78C467.237 1037.15 464.867 1038.48 462.471 1039.77C460.076 1041.05 457.658 1042.29 455.216 1043.48C452.775 1044.68 450.313 1045.83 447.83 1046.93C445.346 1048.03 442.843 1049.08 440.321 1050.09C437.798 1051.09 435.257 1052.05 432.699 1052.96C430.14 1053.87 427.566 1054.73 424.975 1055.55C422.386 1056.36 419.782 1057.12 417.162 1057.84C414.544 1058.55 411.913 1059.22 409.27 1059.84C406.627 1060.45 403.973 1061.02 401.309 1061.53C398.645 1062.05 395.972 1062.51 393.29 1062.93C339.233 1071.19 286.622 1059.62 242.428 1026.79L229.798 1016.74C256.744 1028.35 284.313 1037.89 313.13 1043.58C315.211 1044 317.297 1044.4 319.388 1044.77C321.478 1045.14 323.573 1045.48 325.672 1045.8C327.772 1046.12 329.874 1046.41 331.98 1046.68C334.086 1046.95 336.195 1047.19 338.307 1047.4C340.419 1047.62 342.534 1047.81 344.65 1047.97C346.767 1048.13 348.885 1048.27 351.005 1048.38C353.124 1048.49 355.245 1048.58 357.367 1048.64C359.489 1048.7 361.611 1048.73 363.734 1048.74C365.856 1048.74 367.979 1048.72 370.101 1048.68C372.223 1048.63 374.344 1048.56 376.465 1048.46C378.585 1048.36 380.704 1048.24 382.822 1048.09C384.939 1047.94 387.055 1047.77 389.168 1047.56C391.282 1047.36 393.392 1047.13 395.5 1046.88C397.608 1046.63 399.712 1046.35 401.813 1046.04C403.914 1045.74 406.011 1045.41 408.104 1045.05C410.197 1044.69 412.285 1044.31 414.369 1043.9C416.453 1043.49 418.531 1043.06 420.604 1042.6C422.677 1042.14 424.745 1041.66 426.807 1041.15C428.868 1040.64 430.923 1040.1 432.971 1039.54C435.02 1038.98 437.061 1038.39 439.096 1037.78C441.13 1037.17 443.156 1036.53 445.175 1035.87C447.195 1035.21 449.205 1034.53 451.208 1033.82C453.21 1033.11 455.203 1032.37 457.188 1031.61C459.173 1030.85 461.148 1030.07 463.114 1029.26C465.079 1028.45 467.035 1027.62 468.98 1026.77C470.926 1025.91 472.861 1025.03 474.786 1024.13C476.71 1023.22 478.623 1022.3 480.525 1021.35C482.426 1020.4 484.316 1019.42 486.195 1018.42C488.073 1017.43 489.94 1016.41 491.793 1015.36C493.647 1014.32 495.487 1013.26 497.315 1012.17C499.143 1011.08 500.957 1009.97 502.759 1008.84C504.56 1007.7 506.347 1006.55 508.12 1005.37Z" fill="#6DAAFF"/>
<path d="M348.744 641.814C379.47 637.4 425.983 648.456 453.877 661.659C430.756 657.871 408.45 655.182 384.973 657.26C383.182 657.424 381.394 657.609 379.608 657.817C377.823 658.024 376.04 658.254 374.26 658.507C372.479 658.759 370.702 659.034 368.929 659.33C367.155 659.627 365.386 659.946 363.621 660.286C361.855 660.627 360.093 660.99 358.336 661.374C356.579 661.759 354.828 662.166 353.082 662.594C351.335 663.022 349.593 663.472 347.858 663.943C346.122 664.416 344.392 664.909 342.668 665.424C340.945 665.938 339.227 666.475 337.517 667.033C335.807 667.59 334.103 668.169 332.407 668.769C330.71 669.37 329.022 669.991 327.341 670.634C325.66 671.275 323.987 671.938 322.323 672.622C320.658 673.307 319.002 674.011 317.354 674.737C315.707 675.462 314.068 676.208 312.439 676.974C310.81 677.741 309.191 678.527 307.581 679.333C305.97 680.14 304.37 680.966 302.781 681.813C301.191 682.659 299.612 683.525 298.044 684.411C296.476 685.297 294.918 686.203 293.372 687.127C291.826 688.052 290.291 688.996 288.768 689.959C287.245 690.922 285.735 691.904 284.236 692.904C282.737 693.905 281.25 694.924 279.776 695.961C278.302 696.999 276.841 698.055 275.393 699.13C273.945 700.204 272.511 701.296 271.089 702.406C269.668 703.516 268.261 704.643 266.867 705.788C265.473 706.934 264.094 708.096 262.729 709.275C261.364 710.455 260.013 711.651 258.678 712.864C257.342 714.077 256.021 715.307 254.715 716.552C253.41 717.799 252.12 719.061 250.846 720.339C249.571 721.618 248.312 722.912 247.069 724.221C245.826 725.531 244.6 726.856 243.39 728.196C242.179 729.536 240.985 730.891 239.808 732.261C238.631 733.632 237.471 735.016 236.328 736.415C194.519 787.082 178.45 854.099 184.247 918.888C186.919 940.315 192.243 961.209 198.225 981.903C169.129 945.159 152.667 915.457 148.67 867.347C148.531 865.669 148.413 863.989 148.316 862.307C148.218 860.626 148.141 858.944 148.085 857.261C148.028 855.578 147.993 853.894 147.977 852.21C147.962 850.526 147.968 848.842 147.995 847.158C148.021 845.473 148.068 843.79 148.136 842.108C148.204 840.424 148.292 838.743 148.401 837.062C148.51 835.381 148.64 833.703 148.79 832.026C148.941 830.348 149.112 828.673 149.303 827C149.495 825.327 149.707 823.656 149.939 821.989C150.172 820.321 150.425 818.656 150.699 816.995C150.972 815.333 151.266 813.675 151.58 812.021C151.894 810.367 152.229 808.717 152.583 807.071C152.938 805.426 153.313 803.785 153.708 802.149C154.103 800.512 154.518 798.881 154.953 797.254C155.389 795.629 155.844 794.008 156.319 792.393C156.793 790.779 157.288 789.171 157.803 787.568C158.317 785.966 158.851 784.37 159.404 782.782C159.958 781.192 160.531 779.61 161.124 778.035C161.716 776.461 162.328 774.894 162.959 773.335C163.59 771.775 164.24 770.224 164.909 768.681C165.579 767.137 166.267 765.603 166.974 764.077C167.68 762.551 168.406 761.035 169.15 759.527C169.894 758.018 170.656 756.52 171.437 755.031C172.218 753.542 173.017 752.064 173.834 750.595C174.651 749.126 175.486 747.668 176.339 746.22C177.192 744.773 178.063 743.335 178.952 741.909C179.841 740.482 180.746 739.068 181.669 737.665C182.592 736.261 183.533 734.869 184.49 733.488C185.447 732.109 186.421 730.741 187.412 729.384C188.403 728.029 189.41 726.686 190.434 725.355C191.458 724.025 192.499 722.707 193.555 721.402C194.611 720.097 195.683 718.806 196.771 717.529C235.372 671.509 289.906 646.742 348.744 641.814Z" fill="#6DAAFF"/>
<path d="M530.991 723.307C536.474 726.653 541.921 736.365 545.298 741.907C572.566 786.654 584.654 842.069 572.357 893.685C560.997 941.376 532.798 978.3 491.439 1003.77C431.359 1040.78 361.027 1044.52 293.981 1028.15C280.502 1024.33 266.167 1021.1 253.582 1014.8C301.861 1019.59 356.394 1012.31 401.46 994.153C456.712 971.888 505.979 928.562 529.649 872.946C530.274 871.475 530.882 869.997 531.471 868.511C532.06 867.024 532.63 865.531 533.183 864.031C533.735 862.531 534.269 861.024 534.785 859.51C535.3 857.997 535.797 856.477 536.275 854.951C536.753 853.425 537.213 851.893 537.654 850.356C538.094 848.818 538.516 847.275 538.919 845.728C539.321 844.179 539.705 842.626 540.07 841.069C540.434 839.511 540.779 837.949 541.106 836.383C541.432 834.817 541.739 833.247 542.027 831.673C542.314 830.099 542.583 828.522 542.832 826.941C543.081 825.361 543.31 823.778 543.521 822.191C543.73 820.605 543.921 819.016 544.092 817.425C544.263 815.834 544.415 814.241 544.547 812.646C544.679 811.052 544.792 809.455 544.885 807.857C544.977 806.26 545.051 804.662 545.104 803.062C545.158 801.463 545.192 799.863 545.206 798.263C545.22 796.662 545.215 795.061 545.191 793.461C545.165 791.861 545.121 790.261 545.057 788.663C544.993 787.063 544.909 785.465 544.805 783.868C544.702 782.271 544.579 780.676 544.436 779.082C544.293 777.488 544.131 775.896 543.95 774.307C543.768 772.716 543.567 771.129 543.346 769.544C543.126 767.959 542.885 766.377 542.626 764.799C542.366 763.22 542.088 761.645 541.79 760.072C541.492 758.5 541.175 756.932 540.838 755.368C540.501 753.804 540.145 752.245 539.77 750.69C539.395 749.135 539.001 747.585 538.589 746.039C538.176 744.494 537.744 742.954 537.293 741.42C536.842 739.886 536.373 738.357 535.885 736.834C535.397 735.311 534.89 733.795 534.365 732.284C533.839 730.774 533.295 729.271 532.733 727.774C532.171 726.278 531.59 724.788 530.991 723.307Z" fill="#6DAAFF"/>
<path d="M486.828 691.895C488.187 691.553 489.035 691.772 490.375 692.053C399.304 786.875 311.96 885.287 221.967 981.158C221.425 981.7 220.785 981.852 220.085 982.13C219.724 981.363 219.461 980.841 219.387 979.983C218.608 970.938 222.231 958.429 224.219 949.648C235.659 899.13 256.218 854.466 287.668 813.389C334.307 752.474 410.442 701.815 486.828 691.895Z" fill="#6DAAFF"/>
<path d="M498.471 697.916C499.211 698.619 499.607 699.381 499.741 700.405C505.577 744.878 481.862 800.68 457.984 836.779C421.103 892.534 366.575 932.75 307.559 961.961C283.497 973.871 257.202 984.689 230.838 990.029L230.249 989.715L230.11 988.45C272.544 940.742 316.048 894.104 358.977 846.871L430.663 769.296C452.978 745.208 475.035 720.918 498.471 697.916Z" fill="#6DAAFF"/>
<path d="M512.039 708.339C528.763 732.914 536.425 776.413 535.013 805.71C532.561 856.579 507.852 904.915 470.677 938.818C412.163 992.182 337.975 1007.56 261.328 1003.63C252.457 1003.57 243.477 1001.57 234.872 999.571C284.113 992.345 363.039 945.802 401.259 913.853C466.532 859.291 504.061 793.877 512.039 708.339Z" fill="#6DAAFF"/>
<path d="M387.305 667.335C417.329 664.211 453.918 669.93 481.377 682.404C455.183 685.052 426.956 695.519 403.456 707.153C400.85 708.43 398.26 709.738 395.685 711.079C393.111 712.419 390.554 713.792 388.014 715.197C385.474 716.601 382.951 718.037 380.445 719.505C377.94 720.972 375.453 722.471 372.984 724C370.516 725.529 368.066 727.089 365.635 728.679C363.205 730.27 360.795 731.89 358.404 733.54C356.013 735.19 353.643 736.87 351.293 738.579C348.944 740.289 346.616 742.027 344.309 743.794C342.002 745.562 339.717 747.358 337.455 749.182C335.191 751.007 332.951 752.859 330.734 754.739C328.516 756.619 326.322 758.526 324.151 760.461C321.98 762.396 319.834 764.358 317.71 766.347C315.588 768.335 313.49 770.349 311.416 772.389C309.343 774.43 307.295 776.496 305.272 778.588C303.25 780.68 301.253 782.796 299.281 784.937C297.311 787.078 295.367 789.244 293.449 791.434C291.531 793.623 289.64 795.836 287.776 798.073C285.912 800.31 284.076 802.57 282.268 804.853C280.46 807.135 278.68 809.44 276.928 811.768C275.177 814.095 273.454 816.443 271.76 818.812C270.066 821.182 268.401 823.573 266.765 825.984C265.129 828.395 263.523 830.827 261.947 833.279C260.371 835.73 258.825 838.2 257.309 840.69C255.794 843.18 254.309 845.688 252.855 848.215C251.401 850.742 249.978 853.286 248.586 855.849C247.194 858.411 245.834 860.99 244.506 863.587C243.177 866.183 241.88 868.795 240.616 871.423C239.351 874.052 238.119 876.695 236.919 879.355C235.72 882.014 234.554 884.688 233.419 887.376C232.285 890.064 231.183 892.766 230.115 895.481C229.047 898.197 228.013 900.926 227.011 903.668C226.011 906.409 225.043 909.162 224.109 911.928C217.167 933.054 212.411 954.124 208.42 975.971C201.527 954.466 195.554 933.072 193.814 910.431C189.181 850.152 207.28 786.122 246.616 739.942C247.712 738.645 248.823 737.362 249.95 736.093C251.077 734.824 252.219 733.569 253.377 732.328C254.534 731.087 255.707 729.861 256.894 728.65C258.081 727.437 259.282 726.24 260.498 725.058C261.714 723.876 262.945 722.709 264.19 721.557C265.435 720.405 266.693 719.269 267.965 718.149C269.237 717.028 270.523 715.923 271.822 714.834C273.121 713.745 274.433 712.672 275.758 711.616C277.083 710.559 278.421 709.519 279.771 708.496C281.122 707.473 282.484 706.466 283.859 705.476C285.234 704.486 286.621 703.513 288.019 702.558C289.418 701.602 290.828 700.664 292.249 699.743C293.67 698.823 295.102 697.92 296.546 697.034C297.989 696.149 299.443 695.282 300.907 694.432C302.371 693.583 303.846 692.752 305.331 691.938C306.814 691.126 308.308 690.331 309.812 689.555C311.316 688.779 312.829 688.021 314.351 687.282C315.873 686.544 317.404 685.825 318.945 685.124C320.484 684.422 322.032 683.741 323.588 683.078C325.144 682.416 326.708 681.772 328.28 681.148C329.852 680.524 331.432 679.92 333.018 679.335C334.604 678.75 336.198 678.185 337.799 677.639C339.399 677.094 341.005 676.568 342.619 676.062C344.231 675.555 345.85 675.069 347.476 674.604C349.1 674.138 350.73 673.692 352.366 673.267C354.002 672.841 355.643 672.435 357.289 672.05C358.934 671.665 360.584 671.3 362.238 670.956C363.893 670.612 365.551 670.288 367.214 669.985C368.875 669.682 370.541 669.399 372.211 669.136C373.88 668.874 375.552 668.632 377.227 668.411C378.902 668.191 380.58 667.991 382.259 667.811C383.939 667.632 385.621 667.473 387.305 667.335Z" fill="#6DAAFF"/>
<path d="M1785.51 61H1918.35C1919.22 62.3664 1919.7 63.5855 1919.83 65.1996C1921.01 80.7662 1919.99 97.2055 1920 112.842L1920.01 210.358L1920.03 596.718L1920.02 692.496C1920.02 701.801 1921.51 720.012 1919.72 728.356C1919.5 729.34 1919.22 730.278 1918.9 731.231C1916.43 736.576 1909.23 746.881 1904.51 750.226C1884.21 753.98 1844.2 752.651 1823.07 752.032C1815.15 751.854 1807.22 751.591 1799.3 751.242C1791.38 750.893 1783.46 750.459 1775.55 749.939C1767.63 749.42 1759.73 748.816 1751.83 748.127C1743.93 747.438 1736.04 746.664 1728.16 745.804C1720.27 744.946 1712.4 744.002 1704.54 742.974C1696.68 741.945 1688.82 740.833 1680.98 739.635C1673.15 738.438 1665.32 737.157 1657.51 735.791C1649.7 734.425 1641.9 732.976 1634.12 731.442C1626.34 729.909 1618.57 728.293 1610.82 726.592C1603.07 724.892 1595.35 723.108 1587.64 721.241C1579.92 719.375 1572.23 717.425 1564.57 715.393C1556.9 713.361 1549.26 711.247 1541.63 709.051C1534.01 706.854 1526.41 704.575 1518.83 702.216C1511.25 699.856 1503.7 697.414 1496.18 694.892C1488.66 692.369 1481.16 689.766 1473.69 687.083C1466.23 684.398 1458.79 681.634 1451.37 678.791C1428.24 669.872 1405.55 659.941 1383.29 648.999C1369.93 642.378 1355.39 632.774 1341.37 628.252L1340.43 627.956C1357.78 620.848 1380.08 604.261 1395.82 593.607C1402.42 589.079 1408.96 584.472 1415.44 579.785C1421.93 575.099 1428.36 570.336 1434.74 565.495C1441.11 560.654 1447.42 555.737 1453.68 550.744C1459.94 545.751 1466.14 540.684 1472.28 535.541C1478.41 530.399 1484.49 525.184 1490.5 519.895C1496.52 514.606 1502.47 509.246 1508.36 503.815C1514.25 498.383 1520.07 492.881 1525.82 487.309C1531.58 481.737 1537.27 476.096 1542.89 470.387C1548.52 464.679 1554.07 458.903 1559.56 453.06C1565.04 447.217 1570.46 441.31 1575.81 435.336C1581.16 429.363 1586.43 423.326 1591.64 417.226C1596.84 411.126 1601.97 404.963 1607.03 398.74C1612.09 392.516 1617.07 386.233 1621.98 379.889C1626.89 373.545 1631.72 367.143 1636.47 360.683C1641.23 354.223 1645.91 347.707 1650.51 341.134C1655.12 334.561 1659.65 327.933 1664.09 321.252C1711.63 250.379 1748.07 178.561 1775.78 97.7122C1778.6 89.4858 1786.95 68.568 1785.51 61Z" fill="#F2F2F2"/>
<path d="M1552.82 583.284C1560.74 582.165 1567.89 582.708 1574.95 586.786C1581.71 590.688 1587.02 597.121 1589 604.781C1589.11 605.212 1589.21 605.646 1589.3 606.082C1589.39 606.518 1589.46 606.957 1589.53 607.396C1589.6 607.836 1589.65 608.278 1589.7 608.721C1589.74 609.164 1589.77 609.607 1589.79 610.052C1589.82 610.496 1589.83 610.941 1589.83 611.386C1589.83 611.832 1589.82 612.276 1589.8 612.721C1589.78 613.166 1589.75 613.609 1589.71 614.052C1589.66 614.496 1589.6 614.937 1589.54 615.378C1589.48 615.818 1589.4 616.256 1589.31 616.692C1589.22 617.129 1589.12 617.563 1589.01 617.994C1588.91 618.425 1588.79 618.854 1588.65 619.279C1588.53 619.705 1588.39 620.127 1588.24 620.545C1588.09 620.963 1587.92 621.378 1587.76 621.788C1587.58 622.198 1587.4 622.604 1587.21 623.005C1587.02 623.406 1586.82 623.802 1586.61 624.193C1586.39 624.583 1586.17 624.969 1585.94 625.349C1581.32 632.856 1574.07 636.462 1565.79 638.412C1560.95 639.917 1555.38 639.377 1550.64 637.712C1550.21 637.561 1549.78 637.4 1549.36 637.228C1548.93 637.056 1548.52 636.874 1548.1 636.68C1547.69 636.487 1547.28 636.284 1546.88 636.07C1546.47 635.856 1546.07 635.631 1545.67 635.397C1545.28 635.163 1544.89 634.919 1544.51 634.665C1544.13 634.412 1543.76 634.149 1543.4 633.876C1543.02 633.603 1542.66 633.321 1542.31 633.03C1541.96 632.739 1541.61 632.439 1541.27 632.131C1540.93 631.822 1540.6 631.505 1540.27 631.18C1539.95 630.854 1539.64 630.521 1539.33 630.18C1539.02 629.838 1538.73 629.49 1538.44 629.134C1538.15 628.777 1537.87 628.413 1537.59 628.043C1537.33 627.672 1537.07 627.295 1536.81 626.911C1536.56 626.527 1536.32 626.137 1536.08 625.741C1535.85 625.345 1535.63 624.943 1535.42 624.536C1535.2 624.129 1535 623.716 1534.81 623.298C1534.6 622.87 1534.41 622.437 1534.23 621.999C1534.04 621.561 1533.87 621.118 1533.71 620.67C1533.55 620.224 1533.4 619.773 1533.27 619.318C1533.13 618.863 1533 618.406 1532.89 617.945C1532.77 617.483 1532.66 617.02 1532.57 616.554C1532.48 616.087 1532.4 615.619 1532.34 615.148C1532.27 614.678 1532.21 614.206 1532.17 613.732C1532.13 613.259 1532.1 612.785 1532.08 612.31C1532.05 611.835 1532.04 611.36 1532.04 610.884C1532.05 610.409 1532.07 609.934 1532.1 609.459C1532.12 608.985 1532.16 608.511 1532.21 608.039C1532.26 607.566 1532.33 607.096 1532.4 606.626C1532.48 606.157 1532.56 605.69 1532.66 605.225C1532.75 604.759 1532.87 604.297 1532.99 603.838C1533.11 603.378 1533.25 602.922 1533.39 602.47C1533.53 602.018 1533.69 601.569 1533.86 601.125C1537.39 591.702 1544.2 587.31 1552.82 583.284Z" fill="#E0C281"/>
<path d="M1732.09 373.426C1732.61 373.407 1733.12 373.392 1733.63 373.382C1770.26 372.67 1804.02 383.44 1830.58 409.552C1831.3 410.252 1832.01 410.961 1832.71 411.679C1833.42 412.397 1834.11 413.123 1834.79 413.858C1835.48 414.593 1836.16 415.336 1836.82 416.088C1837.49 416.84 1838.14 417.6 1838.79 418.367C1839.44 419.136 1840.08 419.912 1840.71 420.695C1841.34 421.48 1841.96 422.271 1842.57 423.07C1843.17 423.869 1843.77 424.676 1844.36 425.491C1844.95 426.305 1845.53 427.126 1846.1 427.955C1846.67 428.783 1847.23 429.618 1847.78 430.461C1848.33 431.304 1848.87 432.153 1849.4 433.008C1849.93 433.864 1850.45 434.726 1850.95 435.595C1851.46 436.463 1851.96 437.338 1852.44 438.219C1852.93 439.101 1853.4 439.988 1853.87 440.88C1854.33 441.773 1854.78 442.671 1855.23 443.575C1855.67 444.479 1856.1 445.389 1856.52 446.304C1856.95 447.219 1857.35 448.138 1857.75 449.063C1858.15 449.988 1858.54 450.918 1858.91 451.852C1859.29 452.787 1859.65 453.726 1860.01 454.669C1860.36 455.613 1860.7 456.561 1861.03 457.513C1861.35 458.464 1861.67 459.42 1861.98 460.38C1862.28 461.34 1862.58 462.304 1862.86 463.271C1863.15 464.238 1863.41 465.209 1863.67 466.182C1863.93 467.157 1864.18 468.134 1864.41 469.113C1864.65 470.093 1864.87 471.076 1865.08 472.061C1865.29 473.048 1865.49 474.036 1865.67 475.026C1865.86 476.017 1866.04 477.009 1866.2 478.004C1866.36 478.999 1866.51 479.995 1866.65 480.993C1866.79 481.992 1866.91 482.993 1867.03 483.995C1867.14 484.996 1867.24 485.999 1867.33 487.003C1867.42 488.007 1867.5 489.012 1867.56 490.018C1867.62 491.024 1867.67 492.031 1867.72 493.038C1867.76 494.046 1867.79 495.054 1867.8 496.062C1868.04 527.266 1854.87 559.795 1833.09 581.987C1810.88 604.624 1777.9 618.798 1746.32 618.935C1713.77 619.564 1682.23 611.034 1657.03 589.596C1632.66 568.843 1616.64 539.795 1614.01 507.539C1611.21 473.16 1620.95 442.335 1643.11 416.067C1665.2 389.886 1698.67 376.128 1732.09 373.426Z" fill="#E0C281"/>
<path d="M1729 388.551C1729.42 388.516 1729.83 388.486 1730.25 388.46C1761.29 386.534 1791.35 395.827 1814.74 416.741C1836.29 436.015 1849.49 462.254 1851.09 491.298C1852.68 520.364 1844.42 544.598 1825.13 566.291C1805.74 588.097 1777.31 599.542 1748.67 601.141C1748.56 601.161 1748.44 601.187 1748.33 601.2C1721.98 604.481 1689.85 594.548 1669.22 577.89C1668.54 577.345 1667.86 576.791 1667.18 576.228C1666.51 575.666 1665.85 575.095 1665.19 574.516C1664.53 573.937 1663.88 573.35 1663.24 572.754C1662.6 572.159 1661.96 571.556 1661.33 570.944C1660.7 570.333 1660.08 569.715 1659.47 569.089C1658.86 568.462 1658.25 567.828 1657.66 567.186C1657.06 566.544 1656.47 565.895 1655.88 565.239C1655.3 564.582 1654.73 563.919 1654.16 563.248C1653.6 562.577 1653.05 561.9 1652.5 561.215C1651.95 560.53 1651.41 559.838 1650.87 559.14C1650.34 558.442 1649.81 557.738 1649.3 557.027C1648.79 556.316 1648.28 555.598 1647.78 554.874C1647.29 554.15 1646.8 553.42 1646.33 552.683C1645.85 551.948 1645.38 551.206 1644.91 550.459C1644.46 549.711 1644.01 548.957 1643.56 548.199C1643.12 547.439 1642.69 546.675 1642.26 545.905C1641.84 545.135 1641.42 544.36 1641.02 543.58C1640.61 542.8 1640.22 542.015 1639.84 541.225C1639.45 540.435 1639.08 539.64 1638.71 538.841C1638.34 538.042 1637.99 537.238 1637.64 536.429C1637.3 535.621 1636.96 534.809 1636.63 533.992C1636.31 533.176 1635.99 532.355 1635.68 531.531C1635.38 530.706 1635.08 529.878 1634.8 529.046C1634.51 528.214 1634.24 527.379 1633.97 526.54C1633.71 525.701 1633.45 524.859 1633.21 524.014C1632.97 523.169 1632.73 522.321 1632.51 521.47C1632.28 520.62 1632.07 519.766 1631.87 518.91C1631.67 518.053 1631.48 517.195 1631.29 516.334C1631.11 515.472 1630.94 514.609 1630.78 513.744C1630.62 512.879 1630.47 512.011 1630.33 511.142C1630.19 510.273 1630.06 509.403 1629.94 508.53C1629.83 507.658 1629.72 506.785 1629.63 505.91C1626.69 477.681 1633.92 451.318 1651.74 429.318C1671.7 404.676 1697.89 391.791 1729 388.551Z" fill="#F2F2F2"/>
<path d="M1666.39 423.52C1667.64 425.236 1664.94 428.195 1663.82 430.017C1654.43 445.229 1650.27 463.299 1650.2 481.17C1650.2 482.044 1650.21 482.917 1650.23 483.789C1650.25 484.663 1650.28 485.536 1650.32 486.408C1650.37 487.28 1650.42 488.152 1650.48 489.023C1650.55 489.894 1650.62 490.764 1650.7 491.634C1650.79 492.502 1650.88 493.37 1650.99 494.237C1651.09 495.104 1651.21 495.969 1651.35 496.833C1651.47 497.696 1651.61 498.559 1651.76 499.419C1651.91 500.28 1652.07 501.139 1652.23 501.995C1652.4 502.851 1652.58 503.706 1652.77 504.558C1652.96 505.41 1653.16 506.259 1653.37 507.106C1653.58 507.953 1653.81 508.798 1654.04 509.639C1654.27 510.481 1654.51 511.319 1654.77 512.154C1655.02 512.99 1655.28 513.822 1655.56 514.651C1655.82 515.48 1656.11 516.306 1656.4 517.127C1656.7 517.95 1657 518.768 1657.31 519.582C1657.62 520.396 1657.95 521.207 1658.28 522.013C1658.61 522.82 1658.95 523.622 1659.3 524.42C1659.65 525.217 1660.02 526.01 1660.39 526.8C1660.76 527.589 1661.14 528.373 1661.54 529.152C1661.93 529.931 1662.32 530.706 1662.73 531.476C1663.15 532.245 1663.57 533.009 1664 533.767C1664.43 534.527 1664.86 535.28 1665.3 536.028C1665.75 536.776 1666.21 537.519 1666.68 538.255C1667.14 538.993 1667.61 539.724 1668.1 540.448C1668.58 541.174 1669.07 541.892 1669.57 542.605C1670.07 543.317 1670.58 544.024 1671.1 544.724C1671.62 545.424 1672.14 546.118 1672.68 546.805C1673.21 547.492 1673.75 548.172 1674.3 548.845C1674.86 549.519 1675.42 550.186 1675.98 550.846C1676.55 551.505 1677.13 552.157 1677.71 552.803C1678.29 553.448 1678.89 554.086 1679.48 554.717C1680.09 555.347 1680.7 555.97 1681.31 556.585C1706.2 581.752 1736.15 589.151 1770.41 589.269C1766.64 591.866 1760.6 592.242 1756.15 592.834C1754.47 593.13 1752.7 593.233 1750.99 593.383C1721.88 595.938 1693.37 588.148 1670.9 569.02C1670.29 568.501 1669.69 567.975 1669.1 567.441C1668.5 566.908 1667.92 566.366 1667.34 565.817C1666.76 565.269 1666.18 564.714 1665.62 564.152C1665.06 563.589 1664.5 563.019 1663.94 562.443C1663.4 561.867 1662.85 561.284 1662.31 560.694C1661.77 560.104 1661.24 559.507 1660.72 558.904C1660.2 558.3 1659.68 557.691 1659.18 557.076C1658.66 556.46 1658.16 555.837 1657.67 555.208C1657.17 554.58 1656.69 553.946 1656.21 553.305C1655.73 552.664 1655.27 552.018 1654.81 551.366C1654.34 550.714 1653.89 550.056 1653.45 549.392C1653 548.728 1652.56 548.06 1652.13 547.385C1651.7 546.711 1651.28 546.031 1650.86 545.347C1650.45 544.662 1650.05 543.972 1649.65 543.277C1649.26 542.582 1648.87 541.882 1648.49 541.178C1648.12 540.473 1647.75 539.764 1647.38 539.05C1647.02 538.336 1646.67 537.619 1646.33 536.896C1645.98 536.174 1645.65 535.447 1645.32 534.716C1644.99 533.985 1644.68 533.25 1644.37 532.512C1644.07 531.773 1643.77 531.03 1643.48 530.285C1643.18 529.538 1642.9 528.788 1642.63 528.035C1642.36 527.282 1642.1 526.526 1641.84 525.766C1641.59 525.007 1641.35 524.244 1641.11 523.478C1640.88 522.713 1640.66 521.944 1640.44 521.173C1640.22 520.401 1640.01 519.627 1639.82 518.85C1639.62 518.074 1639.43 517.295 1639.26 516.515C1639.08 515.733 1638.91 514.95 1638.75 514.164C1638.6 513.38 1638.45 512.593 1638.31 511.803C1638.17 511.014 1638.04 510.224 1637.92 509.432C1637.8 508.639 1637.69 507.846 1637.59 507.051C1637.49 506.256 1637.4 505.46 1637.32 504.662C1637.24 503.865 1637.17 503.067 1637.11 502.268C1634.55 470.496 1646.47 447.254 1666.39 423.52Z" fill="#E0C281"/>
<path d="M1674.96 423.525C1675.46 423.657 1676.37 423.971 1676.53 424.625C1677.28 427.715 1673.02 446.553 1673.29 452.674C1673.37 454.274 1673.47 455.871 1673.61 457.466C1673.73 459.061 1673.89 460.654 1674.08 462.243C1674.27 463.833 1674.49 465.419 1674.75 467C1674.99 468.581 1675.27 470.158 1675.57 471.73C1675.87 473.301 1676.2 474.866 1676.56 476.426C1676.92 477.985 1677.31 479.537 1677.72 481.083C1678.14 482.628 1678.58 484.165 1679.05 485.694C1679.52 487.223 1680.02 488.742 1680.55 490.253C1681.08 491.764 1681.63 493.265 1682.2 494.756C1682.78 496.246 1683.39 497.726 1684.02 499.194C1684.65 500.663 1685.31 502.119 1686 503.564C1686.68 505.008 1687.39 506.439 1688.13 507.858C1688.86 509.277 1689.62 510.681 1690.41 512.071C1691.2 513.462 1692.01 514.838 1692.85 516.199C1693.69 517.56 1694.55 518.905 1695.43 520.235C1696.32 521.564 1697.23 522.877 1698.16 524.174C1718.91 553.602 1750.71 575.061 1786.07 581.17C1781.04 583.053 1775.54 583.047 1770.23 583.384C1752.45 585.299 1731.13 580.163 1715.17 572.387C1690.74 560.492 1671.12 540.359 1662.15 514.287C1654.45 491.894 1654.57 467.056 1663.91 445.185C1667.05 437.843 1671.26 431.289 1674.67 424.138L1674.96 423.525Z" fill="#E0C281"/>
<path d="M1695.49 411.237C1696.27 411.102 1697.02 411.001 1697.8 410.935C1725.96 408.54 1755.8 419.85 1777.14 438.054C1798.96 456.664 1813.66 484.53 1815.96 513.327C1816.83 524.227 1816.79 547.316 1809.56 555.904C1809.59 556.154 1809.64 556.401 1809.66 556.655C1809.81 558.637 1809.81 560.538 1808.59 562.152C1807.64 561.365 1794.78 519.989 1792.7 514.996C1776.99 477.21 1733.44 426.878 1695.49 411.237Z" fill="#E0C281"/>
<path d="M1683.13 421.633C1686.29 422.224 1688.38 430.262 1689.57 433.228C1711.53 488.093 1753.54 532.852 1794.93 573.646C1793.72 574.529 1791 574.339 1789.45 574.437C1764.38 574.833 1736.53 555.997 1719.28 539.066C1696.81 517.009 1678.96 483.896 1679.58 451.592C1679.77 441.752 1683.41 431.815 1683.16 422.269C1683.15 422.058 1683.14 421.845 1683.13 421.633Z" fill="#E0C281"/>
<path d="M1689.71 415.019C1690.45 415.154 1691.12 415.263 1691.83 415.573C1731.88 433.124 1771.16 480.789 1787.94 520.603C1791.57 529.236 1803.14 558.908 1799.83 567.218C1799.3 567.132 1798.54 566.722 1798.06 566.428C1790.64 561.93 1783.31 552.58 1777.2 546.275C1746.63 514.706 1698.51 458.335 1689.71 415.019Z" fill="#E0C281"/>
<path d="M1733.7 396.113C1744.64 395.569 1755.82 397.011 1766.4 399.803C1767.24 400.021 1768.07 400.249 1768.9 400.488C1769.73 400.727 1770.56 400.977 1771.39 401.237C1772.21 401.496 1773.03 401.766 1773.85 402.046C1774.66 402.326 1775.48 402.617 1776.3 402.917C1777.1 403.218 1777.91 403.528 1778.71 403.849C1779.52 404.17 1780.32 404.501 1781.12 404.841C1781.91 405.182 1782.7 405.533 1783.49 405.893C1784.27 406.254 1785.05 406.624 1785.83 407.004C1786.61 407.384 1787.39 407.774 1788.15 408.173C1788.92 408.573 1789.68 408.982 1790.44 409.4C1791.2 409.819 1791.95 410.246 1792.7 410.684C1793.45 411.121 1794.19 411.568 1794.93 412.024C1795.66 412.48 1796.39 412.945 1797.12 413.419C1797.84 413.893 1798.56 414.377 1799.27 414.869C1799.98 415.361 1800.69 415.862 1801.39 416.371C1802.1 416.881 1802.79 417.4 1803.47 417.927C1804.16 418.455 1804.84 418.99 1805.52 419.534C1806.19 420.079 1806.86 420.631 1807.52 421.192C1808.18 421.753 1808.84 422.322 1809.48 422.9C1810.13 423.477 1810.77 424.062 1811.4 424.656C1812.04 425.249 1812.66 425.85 1813.28 426.459C1813.9 427.068 1814.51 427.685 1815.12 428.309C1815.72 428.933 1816.31 429.566 1816.9 430.205C1817.48 430.844 1818.06 431.49 1818.64 432.144C1819.21 432.797 1819.77 433.458 1820.33 434.126C1820.88 434.794 1821.43 435.469 1821.96 436.15C1822.51 436.831 1823.04 437.519 1823.56 438.214C1824.08 438.909 1824.59 439.61 1825.1 440.318C1825.6 441.024 1826.1 441.738 1826.58 442.458C1827.07 443.178 1827.55 443.904 1828.02 444.636C1828.48 445.368 1828.94 446.105 1829.39 446.848C1829.85 447.592 1830.29 448.341 1830.72 449.096C1831.11 449.783 1831.49 450.474 1831.86 451.17C1832.23 451.867 1832.59 452.567 1832.95 453.272C1833.3 453.977 1833.64 454.687 1833.98 455.4C1834.31 456.113 1834.64 456.831 1834.96 457.552C1835.28 458.274 1835.59 458.999 1835.89 459.728C1836.19 460.458 1836.48 461.19 1836.76 461.926C1837.05 462.663 1837.32 463.403 1837.59 464.146C1837.85 464.889 1838.11 465.635 1838.36 466.384C1838.6 467.134 1838.84 467.886 1839.08 468.642C1839.31 469.397 1839.53 470.155 1839.74 470.916C1839.95 471.677 1840.15 472.44 1840.34 473.206C1840.54 473.971 1840.72 474.738 1840.9 475.509C1841.07 476.279 1841.23 477.051 1841.39 477.825C1841.55 478.6 1841.69 479.376 1841.83 480.153C1841.97 480.931 1842.1 481.71 1842.21 482.491C1842.33 483.272 1842.44 484.055 1842.54 484.838C1842.63 485.621 1842.73 486.406 1842.81 487.192C1842.89 487.978 1842.96 488.765 1843.02 489.552C1843.08 490.339 1843.14 491.127 1843.18 491.916C1843.22 492.706 1843.25 493.495 1843.27 494.284C1843.29 495.074 1843.31 495.863 1843.32 496.653C1843.32 497.443 1843.32 498.233 1843.31 499.023C1843.28 499.812 1843.26 500.602 1843.23 501.392C1843.2 502.181 1843.15 502.969 1843.09 503.757C1843.05 504.546 1842.98 505.333 1842.9 506.12C1842.83 506.906 1842.75 507.692 1842.66 508.477C1842.57 509.261 1842.47 510.044 1842.37 510.827C1842.25 511.609 1842.13 512.39 1842.01 513.169C1841.88 513.948 1841.74 514.726 1841.6 515.501C1841.45 516.277 1841.29 517.051 1841.12 517.823C1840.95 518.595 1840.78 519.365 1840.59 520.133C1840.41 520.9 1840.22 521.666 1840.01 522.429C1835.93 537.553 1827.33 556.885 1813.44 564.937C1814.33 563.79 1815.18 562.617 1816 561.42C1817.89 558.64 1818.35 556.367 1817.72 553.034C1821.26 549.426 1821.69 540.643 1822.13 535.648C1824.96 503.466 1815.66 472.289 1795.06 447.514C1768.93 416.079 1738.65 407.049 1699.75 403.592C1711.14 399.784 1721.7 397.025 1733.7 396.113Z" fill="#E0C281"/>
<path d="M0 513.133C83.7555 482.354 178.004 471.023 266.626 478.334C268.895 480.904 268.828 486.033 269.892 489.437C275.613 507.752 291.236 520.285 310.444 521.263C311.2 521.294 311.956 521.307 312.713 521.302C313.47 521.297 314.226 521.273 314.982 521.231C315.738 521.189 316.492 521.129 317.244 521.05C317.997 520.972 318.748 520.875 319.495 520.759C320.244 520.644 320.989 520.511 321.731 520.36C322.472 520.208 323.21 520.039 323.944 519.853C324.678 519.666 325.406 519.461 326.13 519.238C326.854 519.016 327.572 518.776 328.284 518.518C328.997 518.261 329.703 517.986 330.402 517.695C331.102 517.404 331.794 517.095 332.479 516.77C333.163 516.444 333.839 516.103 334.507 515.745C335.176 515.387 335.835 515.013 336.485 514.623C337.136 514.233 337.777 513.827 338.408 513.406C339.039 512.985 339.66 512.549 340.27 512.098C340.88 511.646 341.479 511.181 342.067 510.701C342.656 510.22 343.232 509.725 343.796 509.217C350.37 503.23 353.604 496.71 356.754 488.592C492.813 512.395 620.867 585.277 706.655 694.98C698.793 703.887 692.57 714.131 693.262 726.542C693.862 737.285 699.468 747.123 707.462 754.064C714.521 760.194 722.719 763.341 731.465 766.093C730.421 773.382 729.466 780.691 727.97 787.903C681.938 790.976 637.184 786.605 591.323 784.811C575.413 728.724 534.88 678.873 484.373 650.603C427.746 618.909 358.454 609.007 295.856 627.164C235.195 644.758 181.787 685.421 151.264 741.542C150.37 743.207 149.495 744.884 148.641 746.571C147.786 748.258 146.952 749.955 146.138 751.662C145.325 753.369 144.532 755.086 143.759 756.814C142.987 758.54 142.236 760.276 141.505 762.021C140.774 763.766 140.065 765.52 139.377 767.282C138.689 769.045 138.021 770.816 137.375 772.594C136.729 774.373 136.105 776.16 135.502 777.953C134.9 779.747 134.318 781.548 133.759 783.357C133.199 785.165 132.661 786.979 132.146 788.801C131.629 790.622 131.135 792.45 130.663 794.283C130.191 796.116 129.742 797.956 129.314 799.8C128.887 801.645 128.481 803.494 128.098 805.348C127.714 807.203 127.353 809.062 127.014 810.925C126.676 812.789 126.36 814.655 126.066 816.526C125.772 818.397 125.501 820.271 125.253 822.149C125.004 824.027 124.777 825.907 124.574 827.79C124.371 829.673 124.19 831.558 124.032 833.446C123.874 835.333 123.738 837.222 123.626 839.113C123.513 841.004 123.423 842.896 123.356 844.789C123.289 846.682 123.245 848.575 123.223 850.47C123.201 852.363 123.202 854.257 123.226 856.152C123.25 858.046 123.297 859.939 123.366 861.832C123.436 863.725 123.528 865.617 123.643 867.508C123.758 869.398 123.896 871.288 124.056 873.175C124.217 875.062 124.399 876.947 124.605 878.829C124.811 880.712 125.039 882.593 125.289 884.47C125.541 886.347 125.814 888.221 126.11 890.092C126.406 891.962 126.725 893.829 127.065 895.692C127.406 897.554 127.769 899.413 128.155 901.267C128.54 903.121 128.948 904.97 129.377 906.814C129.808 908.657 130.26 910.495 130.734 912.329C131.208 914.162 131.704 915.988 132.223 917.809C132.777 919.703 133.354 921.589 133.955 923.468C134.555 925.347 135.179 927.218 135.826 929.081C136.473 930.944 137.142 932.799 137.834 934.646C138.527 936.493 139.241 938.331 139.979 940.159C140.716 941.988 141.476 943.807 142.258 945.617C143.04 947.427 143.845 949.227 144.671 951.016C145.497 952.806 146.345 954.584 147.215 956.353C148.085 958.121 148.977 959.879 149.891 961.625C150.804 963.372 151.739 965.106 152.695 966.829C153.651 968.552 154.628 970.262 155.625 971.96C156.623 973.659 157.642 975.344 158.682 977.017C159.721 978.69 160.781 980.35 161.861 981.996C162.942 983.642 164.042 985.275 165.162 986.894C166.283 988.513 167.424 990.118 168.583 991.708C169.743 993.298 170.922 994.874 172.121 996.435C173.32 997.996 174.537 999.542 175.774 1001.07C177.01 1002.6 178.265 1004.12 179.539 1005.62C180.813 1007.12 182.106 1008.6 183.416 1010.07C184.726 1011.53 186.054 1012.98 187.4 1014.42C188.746 1015.85 190.109 1017.27 191.49 1018.67C192.871 1020.07 194.269 1021.45 195.684 1022.81C197.098 1024.18 198.529 1025.52 199.977 1026.85C201.426 1028.18 202.889 1029.49 204.369 1030.78C205.85 1032.08 207.346 1033.35 208.857 1034.6C210.368 1035.86 211.895 1037.09 213.436 1038.31C214.979 1039.53 216.536 1040.73 218.107 1041.9C219.678 1043.08 221.263 1044.24 222.862 1045.38C224.462 1046.52 226.076 1047.63 227.704 1048.73C229.33 1049.83 230.971 1050.91 232.625 1051.96C234.278 1053.02 235.944 1054.06 237.623 1055.07C239.303 1056.09 240.994 1057.08 242.697 1058.05C244.401 1059.03 246.116 1059.98 247.844 1060.91C303.107 1091.19 370.796 1096.91 430.833 1078.94C432.72 1078.38 434.6 1077.8 436.473 1077.2C438.345 1076.59 440.21 1075.97 442.067 1075.32C443.925 1074.66 445.774 1073.99 447.615 1073.29C449.456 1072.6 451.288 1071.88 453.11 1071.13C454.934 1070.39 456.748 1069.63 458.553 1068.84C460.357 1068.05 462.151 1067.24 463.936 1066.41C465.721 1065.58 467.495 1064.72 469.259 1063.85C471.022 1062.97 472.775 1062.07 474.517 1061.15C476.259 1060.23 477.99 1059.29 479.708 1058.33C481.427 1057.36 483.134 1056.38 484.828 1055.38C486.523 1054.37 488.205 1053.34 489.874 1052.3C491.544 1051.25 493.201 1050.18 494.844 1049.09C496.488 1048 498.118 1046.89 499.734 1045.76C501.35 1044.64 502.952 1043.49 504.54 1042.32C506.128 1041.15 507.702 1039.96 509.261 1038.75C510.82 1037.54 512.364 1036.32 513.893 1035.07C515.422 1033.82 516.936 1032.56 518.434 1031.27C519.932 1029.99 521.414 1028.69 522.88 1027.37C524.347 1026.04 525.797 1024.71 527.23 1023.35C528.663 1021.99 530.08 1020.62 531.479 1019.22C532.879 1017.83 534.262 1016.42 535.627 1014.99C536.992 1013.57 538.34 1012.12 539.67 1010.66C541 1009.2 542.312 1007.73 543.606 1006.23C544.899 1004.74 546.175 1003.23 547.432 1001.71C548.689 1000.18 549.927 998.642 551.145 997.087C552.365 995.531 553.565 993.961 554.746 992.376C555.927 990.79 557.088 989.19 558.229 987.576C559.371 985.962 560.493 984.333 561.595 982.691C562.696 981.049 563.777 979.393 564.839 977.724C565.9 976.055 566.941 974.373 567.961 972.678C568.981 970.983 569.98 969.275 570.958 967.555C571.937 965.835 572.894 964.104 573.83 962.36C574.666 960.798 575.485 959.227 576.286 957.646C577.088 956.065 577.871 954.475 578.636 952.876C579.401 951.277 580.148 949.67 580.877 948.054C581.606 946.438 582.317 944.815 583.01 943.182C583.703 941.55 584.377 939.911 585.032 938.263C585.688 936.615 586.325 934.96 586.943 933.298C587.561 931.636 588.161 929.967 588.742 928.292C589.323 926.616 589.884 924.933 590.426 923.244C590.969 921.556 591.493 919.861 591.998 918.16C592.502 916.459 592.988 914.753 593.454 913.041C593.92 911.329 594.367 909.612 594.795 907.89C595.222 906.168 595.631 904.441 596.02 902.71C596.408 900.978 596.777 899.243 597.126 897.503C597.476 895.763 597.806 894.019 598.117 892.272C598.427 890.524 598.718 888.773 598.988 887.019C599.259 885.265 599.51 883.508 599.742 881.749C599.973 879.989 600.184 878.227 600.376 876.462C600.568 874.697 600.739 872.931 600.891 871.162C601.043 869.393 601.175 867.623 601.287 865.852C601.399 864.08 601.491 862.307 601.563 860.533C601.635 858.759 601.687 856.985 601.72 855.211C601.751 853.435 601.763 851.66 601.755 849.885C601.748 848.109 601.72 846.335 601.672 844.56C601.624 842.785 601.556 841.011 601.469 839.238C601.381 837.466 601.273 835.694 601.145 833.923C601.017 832.153 600.869 830.384 600.701 828.616C600.534 826.849 600.347 825.084 600.139 823.321C599.932 821.559 599.705 819.799 599.458 818.041C599.211 816.283 598.944 814.529 598.658 812.777C598.371 811.025 598.065 809.277 597.739 807.533C597.414 805.788 597.068 804.048 596.703 802.311C596.338 800.574 595.954 798.842 595.549 797.114C639.186 799.812 681.818 801.245 725.55 800.446C688.957 949.788 600.445 1061.36 477.882 1150H0V513.133Z" fill="#F2F2F2"/>
<path d="M1281.4 61H1773.39C1774.64 66.3163 1763.07 97.9512 1760.64 105.187C1711.51 251.845 1601.56 406.5 1486.85 508.926C1456.72 535.826 1423.91 560.331 1390.44 582.839C1370.48 596.257 1349.7 611.712 1328.19 622.433C1325.27 618.879 1318.05 615.524 1313.98 613.214C1296.56 603.345 1266.19 589.062 1252.23 577.009C1248.49 573.774 1245.34 569.449 1242.51 565.387C1202.66 508.103 1169.35 448.547 1143.77 383.434C1135.43 362.221 1128.89 340.221 1123.13 318.169C1121.39 311.49 1119.63 297.24 1115.32 292.225C1120.24 291.093 1124.47 289.195 1128.71 286.432C1137.4 280.75 1144.25 271.988 1146.41 261.639C1148.39 252.117 1145.99 242.197 1140.75 234.125C1134.58 224.601 1125.65 219.11 1114.77 216.717C1122.46 212.172 1154.24 172.962 1163.68 163.352C1186.76 139.834 1210.96 117.555 1236.29 96.5165C1243.27 90.7908 1279.85 65.191 1281.4 61Z" fill="#F2F2F2"/>
<path d="M1366.11 202.321C1366.62 202.265 1367.14 202.217 1367.64 202.179C1410.55 199.018 1452.55 210.211 1485.11 239.398C1512.95 264.358 1532.59 300.641 1534.77 338.465C1536.8 374.056 1523.15 410.766 1499.74 437.271C1474.82 465.491 1438.36 486.255 1400.53 488.394C1400.06 488.513 1399.59 488.646 1399.1 488.727C1365.11 494.351 1323.16 481.938 1295.45 462.068C1265.2 440.373 1243.22 406.73 1237.08 369.687C1230.73 331.367 1239.87 293.588 1262.36 262.042C1287.59 226.651 1324.45 209.183 1366.11 202.321Z" fill="#585F6A"/>
<path d="M1373.51 213.666C1374.68 213.59 1375.85 213.528 1377.02 213.48C1378.19 213.432 1379.37 213.398 1380.54 213.379C1381.72 213.361 1382.89 213.356 1384.07 213.366C1385.24 213.376 1386.42 213.4 1387.59 213.439C1388.76 213.478 1389.94 213.531 1391.1 213.598C1392.28 213.666 1393.45 213.747 1394.63 213.844C1395.79 213.94 1396.96 214.051 1398.13 214.176C1399.3 214.301 1400.46 214.441 1401.63 214.595C1402.79 214.748 1403.95 214.916 1405.11 215.098C1406.27 215.28 1407.43 215.476 1408.58 215.687C1409.74 215.898 1410.9 216.123 1412.04 216.362C1413.2 216.601 1414.34 216.854 1415.48 217.122C1416.63 217.388 1417.77 217.669 1418.91 217.965C1420.04 218.26 1421.18 218.569 1422.31 218.892C1423.44 219.215 1424.57 219.552 1425.68 219.903C1426.81 220.253 1427.93 220.617 1429.04 220.996C1430.15 221.374 1431.26 221.765 1432.36 222.171C1433.47 222.576 1434.56 222.994 1435.65 223.427C1436.75 223.859 1437.84 224.305 1438.92 224.764C1440 225.223 1441.08 225.695 1442.15 226.18C1443.22 226.666 1444.29 227.165 1445.35 227.677C1446.4 228.188 1447.46 228.712 1448.5 229.25C1449.55 229.788 1450.59 230.338 1451.63 230.901C1452.65 231.464 1453.68 232.04 1454.7 232.628C1455.72 233.216 1456.73 233.816 1457.73 234.43C1458.74 235.043 1459.74 235.668 1460.73 236.306C1461.71 236.943 1462.7 237.592 1463.67 238.254C1464.64 238.916 1465.61 239.59 1466.56 240.275C1467.52 240.96 1468.47 241.657 1469.41 242.366C1470.35 243.075 1471.29 243.795 1472.21 244.526C1473.13 245.258 1474.04 246.001 1474.95 246.755C1475.86 247.509 1476.75 248.274 1477.64 249.05C1478.44 249.75 1479.24 250.459 1480.02 251.178C1480.81 251.897 1481.59 252.626 1482.36 253.365C1483.12 254.103 1483.88 254.851 1484.63 255.609C1485.38 256.366 1486.12 257.132 1486.85 257.908C1487.58 258.684 1488.3 259.468 1489.01 260.261C1489.73 261.055 1490.43 261.857 1491.12 262.668C1491.82 263.479 1492.5 264.299 1493.17 265.127C1493.84 265.954 1494.51 266.79 1495.15 267.635C1495.81 268.479 1496.45 269.332 1497.08 270.192C1497.72 271.052 1498.34 271.92 1498.94 272.796C1499.55 273.671 1500.15 274.554 1500.74 275.445C1501.33 276.335 1501.91 277.233 1502.47 278.139C1503.04 279.043 1503.6 279.955 1504.14 280.873C1504.68 281.792 1505.22 282.717 1505.74 283.649C1506.26 284.581 1506.77 285.519 1507.27 286.463C1507.77 287.408 1508.26 288.359 1508.73 289.316C1509.21 290.272 1509.67 291.234 1510.12 292.202C1510.57 293.17 1511.01 294.144 1511.44 295.123C1511.87 296.102 1512.29 297.086 1512.7 298.076C1513.1 299.065 1513.49 300.06 1513.87 301.059C1514.25 302.058 1514.62 303.061 1514.97 304.069C1515.33 305.077 1515.67 306.09 1516.01 307.107C1516.34 308.123 1516.66 309.144 1516.96 310.169C1517.27 311.194 1517.56 312.222 1517.84 313.253C1518.12 314.286 1518.39 315.321 1518.65 316.36C1518.9 317.399 1519.14 318.44 1519.37 319.484C1519.61 320.529 1519.82 321.576 1520.03 322.626C1520.23 323.676 1520.42 324.728 1520.6 325.783C1520.78 326.838 1520.95 327.895 1521.1 328.954C1521.25 330.013 1521.39 331.073 1521.52 332.135C1521.64 333.198 1521.76 334.262 1521.86 335.327C1521.96 336.392 1522.05 337.458 1522.13 338.526C1522.18 339.558 1522.23 340.591 1522.25 341.625C1522.29 342.659 1522.31 343.693 1522.32 344.727C1522.32 345.761 1522.32 346.795 1522.3 347.829C1522.28 348.863 1522.24 349.896 1522.2 350.929C1522.16 351.963 1522.11 352.996 1522.04 354.027C1521.97 355.059 1521.89 356.09 1521.8 357.12C1521.71 358.15 1521.6 359.179 1521.48 360.206C1521.37 361.233 1521.24 362.259 1521.1 363.284C1520.96 364.307 1520.8 365.33 1520.64 366.351C1520.47 367.371 1520.29 368.389 1520.1 369.406C1519.91 370.422 1519.71 371.436 1519.5 372.447C1519.28 373.458 1519.06 374.467 1518.83 375.472C1518.59 376.478 1518.33 377.481 1518.07 378.481C1517.81 379.48 1517.54 380.477 1517.25 381.47C1516.97 382.463 1516.67 383.453 1516.36 384.438C1516.05 385.424 1515.72 386.406 1515.39 387.384C1515.06 388.363 1514.71 389.337 1514.35 390.307C1514 391.276 1513.64 392.241 1513.26 393.202C1512.88 394.163 1512.49 395.119 1512.08 396.07C1511.68 397.021 1511.27 397.967 1510.84 398.909C1510.42 399.85 1509.98 400.786 1509.53 401.717C1509.09 402.648 1508.63 403.573 1508.16 404.492C1507.69 405.412 1507.21 406.325 1506.71 407.233C1506.23 408.141 1505.73 409.043 1505.22 409.938C1504.7 410.834 1504.18 411.724 1503.64 412.607C1503.11 413.489 1502.57 414.366 1502.01 415.236C1501.45 416.105 1500.89 416.969 1500.32 417.825C1499.75 418.681 1499.16 419.53 1498.56 420.372C1497.96 421.214 1497.36 422.048 1496.75 422.876C1496.13 423.702 1495.5 424.522 1494.87 425.334C1494.23 426.146 1493.59 426.95 1492.94 427.746C1492.28 428.542 1491.62 429.331 1490.94 430.111C1490.18 430.974 1489.4 431.828 1488.61 432.672C1487.83 433.517 1487.04 434.351 1486.23 435.176C1485.43 436 1484.61 436.815 1483.78 437.62C1482.96 438.425 1482.12 439.22 1481.28 440.004C1480.43 440.788 1479.57 441.562 1478.72 442.325C1477.85 443.088 1476.98 443.841 1476.1 444.583C1475.21 445.325 1474.32 446.056 1473.42 446.776C1472.53 447.496 1471.62 448.205 1470.7 448.903C1469.78 449.601 1468.86 450.288 1467.92 450.963C1467 451.639 1466.06 452.302 1465.11 452.954C1464.16 453.606 1463.2 454.247 1462.24 454.876C1461.27 455.504 1460.3 456.122 1459.32 456.727C1458.34 457.332 1457.35 457.925 1456.36 458.505C1455.37 459.086 1454.37 459.654 1453.37 460.211C1452.35 460.768 1451.34 461.311 1450.32 461.842C1449.3 462.374 1448.27 462.893 1447.24 463.399C1446.21 463.906 1445.17 464.399 1444.12 464.881C1443.08 465.361 1442.03 465.829 1440.97 466.285C1439.92 466.74 1438.86 467.182 1437.8 467.611C1436.73 468.04 1435.65 468.456 1434.58 468.859C1433.5 469.262 1432.42 469.651 1431.34 470.028C1430.25 470.404 1429.16 470.768 1428.06 471.118C1426.97 471.468 1425.87 471.804 1424.77 472.126C1423.66 472.449 1422.55 472.759 1421.44 473.055C1420.34 473.35 1419.23 473.632 1418.11 473.9C1416.99 474.169 1415.87 474.424 1414.74 474.665C1413.62 474.906 1412.49 475.133 1411.37 475.346C1410.24 475.56 1409.11 475.759 1407.97 475.945C1406.84 476.131 1405.7 476.303 1404.56 476.461C1403.43 476.618 1402.29 476.762 1401.15 476.893C1400.01 477.022 1398.87 477.138 1397.73 477.24C1396.58 477.343 1395.44 477.43 1394.29 477.504C1359.48 480.587 1323.47 469.147 1296.05 447.546C1269.67 426.764 1251.57 393.735 1247.64 360.244C1243.7 326.643 1254.23 291.603 1274.99 265.133C1299.92 233.313 1334.34 218.237 1373.51 213.666Z" fill="#F2F2F2"/>
<path d="M1372.96 224.065C1403.8 222.017 1433.71 229.007 1459.31 246.738C1460.13 247.305 1460.94 247.883 1461.75 248.47C1462.56 249.057 1463.36 249.654 1464.16 250.261C1464.95 250.868 1465.74 251.485 1466.52 252.111C1467.3 252.738 1468.08 253.374 1468.84 254.02C1469.6 254.666 1470.36 255.321 1471.11 255.985C1471.86 256.65 1472.59 257.323 1473.33 258.006C1474.06 258.689 1474.78 259.38 1475.5 260.081C1476.22 260.782 1476.92 261.492 1477.62 262.21C1478.32 262.928 1479 263.655 1479.69 264.39C1480.37 265.125 1481.04 265.868 1481.7 266.62C1482.36 267.372 1483.02 268.132 1483.66 268.9C1484.3 269.668 1484.94 270.444 1485.56 271.228C1486.19 272.011 1486.8 272.803 1487.41 273.602C1488.01 274.401 1488.61 275.207 1489.19 276.021C1489.78 276.835 1490.35 277.656 1490.92 278.484C1491.48 279.312 1492.04 280.146 1492.59 280.989C1493.13 281.83 1493.66 282.679 1494.19 283.534C1494.72 284.389 1495.23 285.25 1495.73 286.118C1496.24 286.986 1496.73 287.859 1497.21 288.739C1497.69 289.619 1498.17 290.505 1498.63 291.397C1499.09 292.288 1499.54 293.185 1499.97 294.089C1500.42 294.991 1500.85 295.899 1501.26 296.812C1501.68 297.726 1502.08 298.644 1502.48 299.568C1502.88 300.491 1503.26 301.42 1503.63 302.353C1504 303.285 1504.36 304.222 1504.71 305.165C1505.06 306.106 1505.4 307.052 1505.72 308.003C1506.05 308.953 1506.36 309.907 1506.66 310.865C1506.96 311.823 1507.26 312.784 1507.54 313.75C1507.82 314.715 1508.09 315.683 1508.34 316.656C1508.6 317.628 1508.85 318.602 1509.08 319.58C1509.31 320.558 1509.53 321.538 1509.73 322.522C1509.94 323.505 1510.14 324.491 1510.32 325.479C1512.55 337.696 1513.71 361.678 1506.46 372.28C1506.95 370.79 1507.28 369.324 1507.14 367.749C1505.67 351.878 1491.05 311.533 1478.95 301.581C1478.94 301.112 1478.97 300.913 1478.77 300.424C1472.91 286.066 1440.73 263.119 1426.59 256.188C1425.55 255.681 1424.5 255.187 1423.45 254.706C1422.39 254.224 1421.33 253.757 1420.27 253.302C1419.21 252.847 1418.14 252.405 1417.07 251.976C1415.99 251.548 1414.91 251.133 1413.82 250.731C1412.73 250.329 1411.64 249.94 1410.55 249.565C1409.46 249.19 1408.36 248.828 1407.25 248.48C1406.15 248.132 1405.04 247.798 1403.93 247.477C1402.82 247.157 1401.7 246.85 1400.58 246.558C1399.46 246.264 1398.34 245.985 1397.21 245.719C1396.09 245.454 1394.96 245.203 1393.82 244.965C1392.69 244.728 1391.56 244.505 1390.42 244.295C1389.28 244.086 1388.14 243.89 1387 243.71C1385.86 243.528 1384.72 243.361 1383.57 243.208C1382.42 243.054 1381.27 242.915 1380.12 242.791C1378.97 242.666 1377.82 242.555 1376.67 242.459C1375.52 242.363 1374.36 242.281 1373.21 242.213C1372.06 242.145 1370.9 242.092 1369.74 242.053C1368.59 242.013 1367.43 241.988 1366.27 241.977C1365.12 241.966 1363.96 241.97 1362.81 241.988C1361.65 242.005 1360.49 242.037 1359.34 242.083C1358.19 242.13 1357.03 242.19 1355.87 242.265C1354.71 242.34 1353.56 242.429 1352.42 242.532C1351.26 242.636 1350.11 242.753 1348.96 242.884C1347.81 243.016 1346.67 243.162 1345.52 243.322C1344.37 243.482 1343.23 243.656 1342.09 243.845C1340.95 244.032 1339.81 244.235 1338.67 244.451C1337.54 244.667 1336.41 244.897 1335.28 245.142C1334.14 245.386 1333.01 245.644 1331.89 245.916C1330.76 246.188 1329.64 246.475 1328.52 246.774C1327.41 247.074 1326.29 247.387 1325.19 247.715C1324.08 248.042 1322.97 248.383 1321.87 248.738C1320.76 249.092 1319.67 249.46 1318.58 249.842C1308.95 253.148 1300.26 258.707 1290.63 261.951L1289.66 262.27C1296.44 258.756 1301.48 252.517 1307.58 247.962C1327.18 233.334 1348.97 226.68 1372.96 224.065Z" fill="#6DAAFF"/>
<path d="M1262.79 307.248L1263.89 307.398C1264.02 311.165 1264.19 314.932 1264.39 318.696C1266.36 354.325 1282.75 386.393 1309.1 410.002C1309.98 410.804 1310.87 411.595 1311.77 412.374C1312.67 413.153 1313.58 413.921 1314.5 414.678C1315.43 415.435 1316.35 416.181 1317.29 416.915C1318.22 417.649 1319.17 418.371 1320.13 419.081C1321.08 419.791 1322.05 420.49 1323.02 421.176C1323.99 421.863 1324.98 422.538 1325.96 423.2C1326.95 423.862 1327.95 424.512 1328.95 425.149C1329.95 425.787 1330.96 426.413 1331.98 427.025C1333 427.637 1334.03 428.237 1335.06 428.825C1336.1 429.412 1337.14 429.986 1338.19 430.546C1339.24 431.108 1340.29 431.656 1341.35 432.192C1342.41 432.726 1343.48 433.248 1344.56 433.757C1345.64 434.265 1346.71 434.761 1347.8 435.243C1348.89 435.724 1349.98 436.192 1351.08 436.648C1352.18 437.102 1353.28 437.543 1354.39 437.971C1355.5 438.398 1356.61 438.812 1357.72 439.212C1358.84 439.611 1359.97 439.998 1361.1 440.37C1362.23 440.742 1363.36 441.1 1364.5 441.444C1365.63 441.788 1366.77 442.117 1367.92 442.433C1369.06 442.749 1370.21 443.051 1371.37 443.338C1372.52 443.625 1373.67 443.898 1374.83 444.157C1375.99 444.416 1377.15 444.66 1378.32 444.89C1379.48 445.119 1380.65 445.334 1381.82 445.535C1382.99 445.736 1384.16 445.923 1385.33 446.094C1386.51 446.266 1387.69 446.423 1388.87 446.567C1390.04 446.709 1391.22 446.837 1392.4 446.951C1393.58 447.064 1394.77 447.163 1395.96 447.247C1397.14 447.331 1398.32 447.4 1399.51 447.455C1400.69 447.51 1401.88 447.55 1403.07 447.575C1404.25 447.6 1405.44 447.611 1406.62 447.608C1407.81 447.604 1409 447.585 1410.19 447.551C1411.37 447.518 1412.55 447.47 1413.74 447.407C1432.96 446.234 1468.75 437.337 1481.86 422.485L1481.55 424.839C1477.99 429.397 1473.62 433.878 1468.5 436.618C1467.48 439.139 1463.8 441.328 1461.56 442.917C1431.48 464.306 1396.26 472.51 1359.91 466.229C1326.81 460.514 1297.64 442.876 1278.18 415.066C1262.89 393.206 1255.05 365.697 1257.51 339.004C1258.49 328.308 1260.99 317.821 1262.79 307.248Z" fill="#6DAAFF"/>
<path d="M1360.55 249.589C1370.38 248.949 1380.64 249.842 1390.3 251.721C1391.38 251.935 1392.46 252.163 1393.53 252.404C1394.61 252.646 1395.68 252.9 1396.75 253.168C1397.82 253.436 1398.88 253.717 1399.94 254.011C1401.01 254.306 1402.06 254.613 1403.12 254.935C1404.17 255.255 1405.22 255.589 1406.26 255.935C1407.31 256.283 1408.35 256.642 1409.39 257.015C1410.43 257.388 1411.46 257.773 1412.49 258.172C1413.51 258.57 1414.54 258.981 1415.56 259.405C1416.57 259.829 1417.58 260.266 1418.6 260.715C1419.6 261.164 1420.6 261.626 1421.59 262.099C1422.59 262.573 1423.58 263.06 1424.57 263.558C1425.55 264.057 1426.53 264.567 1427.5 265.091C1428.47 265.613 1429.43 266.148 1430.39 266.694C1431.35 267.242 1432.3 267.801 1433.24 268.372C1434.19 268.942 1435.13 269.524 1436.05 270.118C1436.98 270.712 1437.9 271.317 1438.82 271.934C1439.73 272.551 1440.64 273.179 1441.54 273.819C1442.44 274.457 1443.33 275.108 1444.22 275.77C1445.11 276.432 1445.98 277.104 1446.85 277.788C1447.71 278.471 1448.57 279.165 1449.42 279.87C1450.27 280.575 1451.12 281.29 1451.95 282.015C1452.78 282.741 1453.61 283.477 1454.42 284.223C1455.24 284.969 1456.04 285.726 1456.84 286.492C1457.63 287.259 1458.42 288.035 1459.2 288.82C1459.98 289.606 1460.75 290.401 1461.5 291.207C1462.26 292.011 1463.01 292.825 1463.75 293.649C1464.49 294.472 1465.21 295.305 1465.93 296.146C1466.65 296.989 1467.35 297.839 1468.05 298.698C1468.75 299.557 1469.43 300.425 1470.11 301.302C1470.79 302.178 1471.46 303.063 1472.11 303.955C1472.77 304.848 1473.41 305.749 1474.03 306.658C1474.67 307.567 1475.29 308.483 1475.9 309.408C1486.01 324.469 1502.46 360.42 1499.01 378.525C1499.05 377.714 1499.02 376.841 1498.78 376.06C1495.66 365.952 1474.57 342.6 1466.03 337.503C1465.6 336.074 1464.78 335.191 1463.76 334.129C1432.5 301.876 1376.64 281.642 1333.16 275.928C1317.43 273.86 1301.6 273.812 1285.77 273.677C1292.79 271.541 1299.81 267.056 1306.49 263.856C1324.23 255.357 1340.98 251.125 1360.55 249.589Z" fill="#6DAAFF"/>
<path d="M1281.87 281.729C1303.28 279.199 1327.27 281.99 1348.24 286.215C1404.28 297.5 1458.79 327.288 1490.88 376.25C1492.87 379.292 1496.44 383.837 1495.69 387.61C1495.44 387.717 1495.21 387.857 1494.94 387.933C1480.28 392.168 1304.49 299.077 1281.87 281.729Z" fill="#6DAAFF"/>
<path d="M1276.77 291.174C1278.36 290.992 1279.42 291.126 1280.86 291.814C1297.2 299.601 1313.06 309.654 1328.96 318.428C1353 331.684 1377.3 344.426 1401.86 356.653C1421.61 366.791 1441.72 376.107 1462.21 384.603C1471.8 388.532 1483.07 391.229 1492.11 395.926C1490.73 397.766 1487.32 398.243 1485.17 398.86C1485.01 398.972 1484.87 399.097 1484.7 399.194C1467.28 409.197 1423.16 403.635 1404.39 398.747C1362.36 387.805 1317.03 359.314 1292.66 322.501C1286.18 312.725 1282.93 301.452 1277.06 291.66C1276.97 291.496 1276.86 291.335 1276.77 291.174Z" fill="#6DAAFF"/>
<path d="M1271.83 302.522C1275.22 304.212 1280 316.108 1282.11 319.946C1304.28 360.272 1357.04 392.832 1399.98 405.065C1420.57 410.935 1467.62 417.417 1486.86 406.598C1486.76 406.935 1486.68 407.276 1486.57 407.608C1484.88 412.559 1476.18 417.67 1471.68 419.749C1471.53 419.98 1471.42 420.23 1471.25 420.442C1462.96 430.875 1424.77 439.298 1411.29 440.011C1375.09 441.927 1339.28 428.065 1312.51 403.614C1280.12 374.042 1273.91 344.519 1271.83 302.522Z" fill="#6DAAFF"/>
</g>
<defs>
<filter id="filter0_f_10_609" x="-60.1" y="0.900002" width="2040.2" height="1209.2" filterUnits="userSpaceOnUse" color-interpolation-filters="sRGB">
<feFlood flood-opacity="0" result="BackgroundImageFix"/>
<feBlend mode="normal" in="SourceGraphic" in2="BackgroundImageFix" result="shape"/>
<feGaussianBlur stdDeviation="30.05" result="effect1_foregroundBlur_10_609"/>
</filter>
<clipPath id="clip0_10_609">
<rect width="1920" height="1089" fill="white" transform="translate(0 61)"/>
</clipPath>
</defs>
</svg>
